<svg width="169" height="33" viewBox="0 0 169 33" fill="none" xmlns="http://www.w3.org/2000/svg">
<rect y="2" width="27" height="27" rx="6" fill="#1A1F37"/>
<path d="M24.1875 5.375H21.0938C21.0192 5.375 20.9476 5.34537 20.8949 5.29262C20.8421 5.23988 20.8125 5.16834 20.8125 5.09375V3.125C20.8125 2.82663 20.694 2.54048 20.483 2.3295C20.272 2.11853 19.9859 2 19.6875 2C19.3891 2 19.103 2.11853 18.892 2.3295C18.681 2.54048 18.5625 2.82663 18.5625 3.125V8.46875C18.5625 8.69253 18.4736 8.90714 18.3154 9.06537C18.1571 9.22361 17.9425 9.3125 17.7188 9.3125C17.495 9.3125 17.2804 9.22361 17.1221 9.06537C16.9639 8.90714 16.875 8.69253 16.875 8.46875V5.9375C16.875 5.78832 16.8157 5.64524 16.7102 5.53975C16.6048 5.43426 16.4617 5.375 16.3125 5.375H9.28125C9.20666 5.375 9.13512 5.34537 9.08238 5.29262C9.02963 5.23988 9 5.16834 9 5.09375V3.125C9 2.82663 8.88147 2.54048 8.6705 2.3295C8.45952 2.11853 8.17337 2 7.875 2C7.57663 2 7.29048 2.11853 7.0795 2.3295C6.86853 2.54048 6.75 2.82663 6.75 3.125V8.46875C6.75 8.69253 6.66111 8.90714 6.50287 9.06537C6.34464 9.22361 6.13003 9.3125 5.90625 9.3125C5.68247 9.3125 5.46786 9.22361 5.30963 9.06537C5.15139 8.90714 5.0625 8.69253 5.0625 8.46875V5.9375C5.0625 5.78832 5.00324 5.64524 4.89775 5.53975C4.79226 5.43426 4.64918 5.375 4.5 5.375H2.8125C2.21576 5.375 1.64347 5.61205 1.22151 6.03401C0.799553 6.45597 0.5625 7.02826 0.5625 7.625V26.75C0.5625 27.3467 0.799553 27.919 1.22151 28.341C1.64347 28.7629 2.21576 29 2.8125 29H24.1875C24.7842 29 25.3565 28.7629 25.7785 28.341C26.2004 27.919 26.4375 27.3467 26.4375 26.75V7.625C26.4375 7.02826 26.2004 6.45597 25.7785 6.03401C25.3565 5.61205 24.7842 5.375 24.1875 5.375ZM24.1875 26.1875C24.1875 26.3367 24.1282 26.4798 24.0227 26.5852C23.9173 26.6907 23.7742 26.75 23.625 26.75H3.375C3.22582 26.75 3.08274 26.6907 2.97725 26.5852C2.87176 26.4798 2.8125 26.3367 2.8125 26.1875V12.6875C2.8125 12.5383 2.87176 12.3952 2.97725 12.2898C3.08274 12.1843 3.22582 12.125 3.375 12.125H23.625C23.7742 12.125 23.9173 12.1843 24.0227 12.2898C24.1282 12.3952 24.1875 12.5383 24.1875 12.6875V26.1875Z" fill="#0075FF"/>
<path d="M13.6687 14.5437C13.3816 14.4065 13.0616 14.3528 12.7453 14.3886C12.4291 14.4244 12.1292 14.5483 11.88 14.7462L9.97875 16.265C9.75647 16.4548 9.61679 16.7237 9.58928 17.0146C9.56177 17.3056 9.64859 17.5959 9.83136 17.824C10.0141 18.0521 10.2785 18.2001 10.5685 18.2367C10.8585 18.2733 11.1513 18.1956 11.385 18.02L12.375 17.2325V23.375C12.375 23.6734 12.4935 23.9595 12.7045 24.1705C12.9155 24.3815 13.2016 24.5 13.5 24.5C13.7984 24.5 14.0845 24.3815 14.2955 24.1705C14.5065 23.9595 14.625 23.6734 14.625 23.375V16.0625C14.6246 15.745 14.5347 15.4341 14.3655 15.1655C14.1964 14.8968 13.9549 14.6813 13.6687 14.5437Z" fill="#0075FF"/>
<path d="M50.248 9.32C52.024 9.32 53.576 9.664 54.904 10.352C56.248 11.024 57.28 12 58 13.28C58.736 14.544 59.104 16.024 59.104 17.72C59.104 19.416 58.736 20.888 58 22.136C57.28 23.384 56.248 24.344 54.904 25.016C53.576 25.672 52.024 26 50.248 26H44.8V9.32H50.248ZM50.248 23.768C52.2 23.768 53.696 23.24 54.736 22.184C55.776 21.128 56.296 19.64 56.296 17.72C56.296 15.784 55.776 14.272 54.736 13.184C53.696 12.096 52.2 11.552 50.248 11.552H47.536V23.768H50.248ZM60.9036 19.328C60.9036 18 61.1756 16.824 61.7196 15.8C62.2796 14.776 63.0316 13.984 63.9756 13.424C64.9356 12.848 65.9916 12.56 67.1436 12.56C68.1836 12.56 69.0876 12.768 69.8556 13.184C70.6396 13.584 71.2636 14.088 71.7276 14.696V12.776H74.4876V26H71.7276V24.032C71.2636 24.656 70.6316 25.176 69.8316 25.592C69.0316 26.008 68.1196 26.216 67.0956 26.216C65.9596 26.216 64.9196 25.928 63.9756 25.352C63.0316 24.76 62.2796 23.944 61.7196 22.904C61.1756 21.848 60.9036 20.656 60.9036 19.328ZM71.7276 19.376C71.7276 18.464 71.5356 17.672 71.1516 17C70.7836 16.328 70.2956 15.816 69.6876 15.464C69.0796 15.112 68.4236 14.936 67.7196 14.936C67.0156 14.936 66.3596 15.112 65.7516 15.464C65.1436 15.8 64.6476 16.304 64.2636 16.976C63.8956 17.632 63.7116 18.416 63.7116 19.328C63.7116 20.24 63.8956 21.04 64.2636 21.728C64.6476 22.416 65.1436 22.944 65.7516 23.312C66.3756 23.664 67.0316 23.84 67.7196 23.84C68.4236 23.84 69.0796 23.664 69.6876 23.312C70.2956 22.96 70.7836 22.448 71.1516 21.776C71.5356 21.088 71.7276 20.288 71.7276 19.376ZM79.4733 11.024C78.9773 11.024 78.5613 10.856 78.2253 10.52C77.8893 10.184 77.7213 9.768 77.7213 9.272C77.7213 8.776 77.8893 8.36 78.2253 8.024C78.5613 7.688 78.9773 7.52 79.4733 7.52C79.9533 7.52 80.3613 7.688 80.6973 8.024C81.0333 8.36 81.2013 8.776 81.2013 9.272C81.2013 9.768 81.0333 10.184 80.6973 10.52C80.3613 10.856 79.9533 11.024 79.4733 11.024ZM80.8173 12.776V26H78.0813V12.776H80.8173ZM87.1454 8.24V26H84.4094V8.24H87.1454ZM102.642 12.776L94.5295 32.216H91.6975L94.3855 25.784L89.1775 12.776H92.2255L95.9455 22.856L99.8095 12.776H102.642ZM113.677 23.792H119.317V26H110.941V9.32H113.677V23.792ZM127.341 26.216C126.093 26.216 124.965 25.936 123.957 25.376C122.949 24.8 122.157 24 121.581 22.976C121.005 21.936 120.717 20.736 120.717 19.376C120.717 18.032 121.013 16.84 121.605 15.8C122.197 14.76 123.005 13.96 124.029 13.4C125.053 12.84 126.197 12.56 127.461 12.56C128.725 12.56 129.869 12.84 130.893 13.4C131.917 13.96 132.725 14.76 133.317 15.8C133.909 16.84 134.205 18.032 134.205 19.376C134.205 20.72 133.901 21.912 133.293 22.952C132.685 23.992 131.853 24.8 130.797 25.376C129.757 25.936 128.605 26.216 127.341 26.216ZM127.341 23.84C128.045 23.84 128.701 23.672 129.309 23.336C129.933 23 130.437 22.496 130.821 21.824C131.205 21.152 131.397 20.336 131.397 19.376C131.397 18.416 131.213 17.608 130.845 16.952C130.477 16.28 129.989 15.776 129.381 15.44C128.773 15.104 128.117 14.936 127.413 14.936C126.709 14.936 126.053 15.104 125.445 15.44C124.853 15.776 124.381 16.28 124.029 16.952C123.677 17.608 123.501 18.416 123.501 19.376C123.501 20.8 123.861 21.904 124.581 22.688C125.317 23.456 126.237 23.84 127.341 23.84ZM142.237 12.56C143.261 12.56 144.165 12.768 144.949 13.184C145.749 13.584 146.373 14.088 146.821 14.696V12.776H149.581V26.216C149.581 27.432 149.325 28.512 148.813 29.456C148.301 30.416 147.557 31.168 146.581 31.712C145.621 32.256 144.469 32.528 143.125 32.528C141.333 32.528 139.845 32.104 138.661 31.256C137.477 30.424 136.805 29.288 136.645 27.848H139.357C139.565 28.536 140.005 29.088 140.677 29.504C141.365 29.936 142.181 30.152 143.125 30.152C144.229 30.152 145.117 29.816 145.789 29.144C146.477 28.472 146.821 27.496 146.821 26.216V24.008C146.357 24.632 145.725 25.16 144.925 25.592C144.141 26.008 143.245 26.216 142.237 26.216C141.085 26.216 140.029 25.928 139.069 25.352C138.125 24.76 137.373 23.944 136.813 22.904C136.269 21.848 135.997 20.656 135.997 19.328C135.997 18 136.269 16.824 136.813 15.8C137.373 14.776 138.125 13.984 139.069 13.424C140.029 12.848 141.085 12.56 142.237 12.56ZM146.821 19.376C146.821 18.464 146.629 17.672 146.245 17C145.877 16.328 145.389 15.816 144.781 15.464C144.173 15.112 143.517 14.936 142.813 14.936C142.109 14.936 141.453 15.112 140.845 15.464C140.237 15.8 139.741 16.304 139.357 16.976C138.989 17.632 138.805 18.416 138.805 19.328C138.805 20.24 138.989 21.04 139.357 21.728C139.741 22.416 140.237 22.944 140.845 23.312C141.469 23.664 142.125 23.84 142.813 23.84C143.517 23.84 144.173 23.664 144.781 23.312C145.389 22.96 145.877 22.448 146.245 21.776C146.629 21.088 146.821 20.288 146.821 19.376ZM157.975 26.216C156.935 26.216 155.999 26.032 155.167 25.664C154.351 25.28 153.703 24.768 153.223 24.128C152.743 23.472 152.487 22.744 152.455 21.944H155.287C155.335 22.504 155.599 22.976 156.079 23.36C156.575 23.728 157.191 23.912 157.927 23.912C158.695 23.912 159.287 23.768 159.703 23.48C160.135 23.176 160.351 22.792 160.351 22.328C160.351 21.832 160.111 21.464 159.631 21.224C159.167 20.984 158.423 20.72 157.399 20.432C156.407 20.16 155.599 19.896 154.975 19.64C154.351 19.384 153.807 18.992 153.343 18.464C152.895 17.936 152.671 17.24 152.671 16.376C152.671 15.672 152.879 15.032 153.295 14.456C153.711 13.864 154.303 13.4 155.071 13.064C155.855 12.728 156.751 12.56 157.759 12.56C159.263 12.56 160.471 12.944 161.383 13.712C162.311 14.464 162.807 15.496 162.871 16.808H160.135C160.087 16.216 159.847 15.744 159.415 15.392C158.983 15.04 158.399 14.864 157.663 14.864C156.943 14.864 156.391 15 156.007 15.272C155.623 15.544 155.431 15.904 155.431 16.352C155.431 16.704 155.559 17 155.815 17.24C156.071 17.48 156.383 17.672 156.751 17.816C157.119 17.944 157.663 18.112 158.383 18.32C159.343 18.576 160.127 18.84 160.735 19.112C161.359 19.368 161.895 19.752 162.343 20.264C162.791 20.776 163.023 21.456 163.039 22.304C163.039 23.056 162.831 23.728 162.415 24.32C161.999 24.912 161.407 25.376 160.639 25.712C159.887 26.048 158.999 26.216 157.975 26.216Z" fill="white"/>
</svg>
