<svg width="204" height="49" viewBox="0 0 204 49" fill="none" xmlns="http://www.w3.org/2000/svg">
<path d="M0 10C0 4.47715 4.47715 0 10 0H194C199.523 0 204 4.47715 204 10V39C204 44.5228 199.523 49 194 49H10C4.47716 49 0 44.5228 0 39V10Z" fill="#8399B2"/>
<path d="M24.2 33.14C23.2267 33.14 22.3467 32.9733 21.56 32.64C20.7867 32.3067 20.1733 31.8267 19.72 31.2C19.2667 30.5733 19.0333 29.8333 19.02 28.98H22.02C22.06 29.5533 22.26 30.0067 22.62 30.34C22.9933 30.6733 23.5 30.84 24.14 30.84C24.7933 30.84 25.3067 30.6867 25.68 30.38C26.0533 30.06 26.24 29.6467 26.24 29.14C26.24 28.7267 26.1133 28.3867 25.86 28.12C25.6067 27.8533 25.2867 27.6467 24.9 27.5C24.5267 27.34 24.0067 27.1667 23.34 26.98C22.4333 26.7133 21.6933 26.4533 21.12 26.2C20.56 25.9333 20.0733 25.54 19.66 25.02C19.26 24.4867 19.06 23.78 19.06 22.9C19.06 22.0733 19.2667 21.3533 19.68 20.74C20.0933 20.1267 20.6733 19.66 21.42 19.34C22.1667 19.0067 23.02 18.84 23.98 18.84C25.42 18.84 26.5867 19.1933 27.48 19.9C28.3867 20.5933 28.8867 21.5667 28.98 22.82H25.9C25.8733 22.34 25.6667 21.9467 25.28 21.64C24.9067 21.32 24.4067 21.16 23.78 21.16C23.2333 21.16 22.7933 21.3 22.46 21.58C22.14 21.86 21.98 22.2667 21.98 22.8C21.98 23.1733 22.1 23.4867 22.34 23.74C22.5933 23.98 22.9 24.18 23.26 24.34C23.6333 24.4867 24.1533 24.66 24.82 24.86C25.7267 25.1267 26.4667 25.3933 27.04 25.66C27.6133 25.9267 28.1067 26.3267 28.52 26.86C28.9333 27.3933 29.14 28.0933 29.14 28.96C29.14 29.7067 28.9467 30.4 28.56 31.04C28.1733 31.68 27.6067 32.1933 26.86 32.58C26.1133 32.9533 25.2267 33.14 24.2 33.14ZM30.8475 27.42C30.8475 26.3 31.0675 25.3067 31.5075 24.44C31.9608 23.5733 32.5675 22.9067 33.3275 22.44C34.1008 21.9733 34.9608 21.74 35.9075 21.74C36.7342 21.74 37.4542 21.9067 38.0675 22.24C38.6942 22.5733 39.1942 22.9933 39.5675 23.5V21.92H42.3875V33H39.5675V31.38C39.2075 31.9 38.7075 32.3333 38.0675 32.68C37.4408 33.0133 36.7142 33.18 35.8875 33.18C34.9542 33.18 34.1008 32.94 33.3275 32.46C32.5675 31.98 31.9608 31.3067 31.5075 30.44C31.0675 29.56 30.8475 28.5533 30.8475 27.42ZM39.5675 27.46C39.5675 26.78 39.4342 26.2 39.1675 25.72C38.9008 25.2267 38.5408 24.8533 38.0875 24.6C37.6342 24.3333 37.1475 24.2 36.6275 24.2C36.1075 24.2 35.6275 24.3267 35.1875 24.58C34.7475 24.8333 34.3875 25.2067 34.1075 25.7C33.8408 26.18 33.7075 26.7533 33.7075 27.42C33.7075 28.0867 33.8408 28.6733 34.1075 29.18C34.3875 29.6733 34.7475 30.0533 35.1875 30.32C35.6408 30.5867 36.1208 30.72 36.6275 30.72C37.1475 30.72 37.6342 30.5933 38.0875 30.34C38.5408 30.0733 38.9008 29.7 39.1675 29.22C39.4342 28.7267 39.5675 28.14 39.5675 27.46ZM58.8822 21.76C60.2422 21.76 61.3355 22.18 62.1622 23.02C63.0022 23.8467 63.4222 25.0067 63.4222 26.5V33H60.6222V26.88C60.6222 26.0133 60.4022 25.3533 59.9622 24.9C59.5222 24.4333 58.9222 24.2 58.1622 24.2C57.4022 24.2 56.7955 24.4333 56.3422 24.9C55.9022 25.3533 55.6822 26.0133 55.6822 26.88V33H52.8822V26.88C52.8822 26.0133 52.6622 25.3533 52.2222 24.9C51.7822 24.4333 51.1822 24.2 50.4222 24.2C49.6489 24.2 49.0355 24.4333 48.5822 24.9C48.1422 25.3533 47.9222 26.0133 47.9222 26.88V33H45.1222V21.92H47.9222V23.26C48.2822 22.7933 48.7422 22.4267 49.3022 22.16C49.8755 21.8933 50.5022 21.76 51.1822 21.76C52.0489 21.76 52.8222 21.9467 53.5022 22.32C54.1822 22.68 54.7089 23.2 55.0822 23.88C55.4422 23.24 55.9622 22.7267 56.6422 22.34C57.3355 21.9533 58.0822 21.76 58.8822 21.76ZM68.8792 23.52C69.2392 23.0133 69.7326 22.5933 70.3592 22.26C70.9992 21.9133 71.7259 21.74 72.5392 21.74C73.4859 21.74 74.3392 21.9733 75.0992 22.44C75.8726 22.9067 76.4792 23.5733 76.9192 24.44C77.3726 25.2933 77.5992 26.2867 77.5992 27.42C77.5992 28.5533 77.3726 29.56 76.9192 30.44C76.4792 31.3067 75.8726 31.98 75.0992 32.46C74.3392 32.94 73.4859 33.18 72.5392 33.18C71.7259 33.18 71.0059 33.0133 70.3792 32.68C69.7659 32.3467 69.2659 31.9267 68.8792 31.42V38.28H66.0792V21.92H68.8792V23.52ZM74.7392 27.42C74.7392 26.7533 74.5992 26.18 74.3192 25.7C74.0526 25.2067 73.6926 24.8333 73.2392 24.58C72.7992 24.3267 72.3192 24.2 71.7992 24.2C71.2926 24.2 70.8126 24.3333 70.3592 24.6C69.9192 24.8533 69.5592 25.2267 69.2792 25.72C69.0126 26.2133 68.8792 26.7933 68.8792 27.46C68.8792 28.1267 69.0126 28.7067 69.2792 29.2C69.5592 29.6933 69.9192 30.0733 70.3592 30.34C70.8126 30.5933 71.2926 30.72 71.7992 30.72C72.3192 30.72 72.7992 30.5867 73.2392 30.32C73.6926 30.0533 74.0526 29.6733 74.3192 29.18C74.5992 28.6867 74.7392 28.1 74.7392 27.42ZM82.4339 18.2V33H79.6339V18.2H82.4339ZM86.6203 20.6C86.127 20.6 85.7136 20.4467 85.3803 20.14C85.0603 19.82 84.9003 19.4267 84.9003 18.96C84.9003 18.4933 85.0603 18.1067 85.3803 17.8C85.7136 17.48 86.127 17.32 86.6203 17.32C87.1136 17.32 87.5203 17.48 87.8403 17.8C88.1736 18.1067 88.3403 18.4933 88.3403 18.96C88.3403 19.4267 88.1736 19.82 87.8403 20.14C87.5203 20.4467 87.1136 20.6 86.6203 20.6ZM88.0003 21.92V33H85.2003V21.92H88.0003ZM96.9067 21.76C98.2267 21.76 99.2934 22.18 100.107 23.02C100.92 23.8467 101.327 25.0067 101.327 26.5V33H98.5267V26.88C98.5267 26 98.3067 25.3267 97.8667 24.86C97.4267 24.38 96.8267 24.14 96.0667 24.14C95.2934 24.14 94.6801 24.38 94.2267 24.86C93.7867 25.3267 93.5667 26 93.5667 26.88V33H90.7667V21.92H93.5667V23.3C93.9401 22.82 94.4134 22.4467 94.9867 22.18C95.5734 21.9 96.2134 21.76 96.9067 21.76ZM108.329 21.74C109.156 21.74 109.883 21.9067 110.509 22.24C111.136 22.56 111.629 22.98 111.989 23.5V21.92H114.809V33.08C114.809 34.1067 114.603 35.02 114.189 35.82C113.776 36.6333 113.156 37.2733 112.329 37.74C111.503 38.22 110.503 38.46 109.329 38.46C107.756 38.46 106.463 38.0933 105.449 37.36C104.449 36.6267 103.883 35.6267 103.749 34.36H106.529C106.676 34.8667 106.989 35.2667 107.469 35.56C107.963 35.8667 108.556 36.02 109.249 36.02C110.063 36.02 110.723 35.7733 111.229 35.28C111.736 34.8 111.989 34.0667 111.989 33.08V31.36C111.629 31.88 111.129 32.3133 110.489 32.66C109.863 33.0067 109.143 33.18 108.329 33.18C107.396 33.18 106.543 32.94 105.769 32.46C104.996 31.98 104.383 31.3067 103.929 30.44C103.489 29.56 103.269 28.5533 103.269 27.42C103.269 26.3 103.489 25.3067 103.929 24.44C104.383 23.5733 104.989 22.9067 105.749 22.44C106.523 21.9733 107.383 21.74 108.329 21.74ZM111.989 27.46C111.989 26.78 111.856 26.2 111.589 25.72C111.323 25.2267 110.963 24.8533 110.509 24.6C110.056 24.3333 109.569 24.2 109.049 24.2C108.529 24.2 108.049 24.3267 107.609 24.58C107.169 24.8333 106.809 25.2067 106.529 25.7C106.263 26.18 106.129 26.7533 106.129 27.42C106.129 28.0867 106.263 28.6733 106.529 29.18C106.809 29.6733 107.169 30.0533 107.609 30.32C108.063 30.5867 108.543 30.72 109.049 30.72C109.569 30.72 110.056 30.5933 110.509 30.34C110.963 30.0733 111.323 29.7 111.589 29.22C111.856 28.7267 111.989 28.14 111.989 27.46ZM133.89 19.04V33H131.09V27.06H125.11V33H122.31V19.04H125.11V24.78H131.09V19.04H133.89ZM138.066 20.6C137.572 20.6 137.159 20.4467 136.826 20.14C136.506 19.82 136.346 19.4267 136.346 18.96C136.346 18.4933 136.506 18.1067 136.826 17.8C137.159 17.48 137.572 17.32 138.066 17.32C138.559 17.32 138.966 17.48 139.286 17.8C139.619 18.1067 139.786 18.4933 139.786 18.96C139.786 19.4267 139.619 19.82 139.286 20.14C138.966 20.4467 138.559 20.6 138.066 20.6ZM139.446 21.92V33H136.646V21.92H139.446ZM146.452 33.18C145.545 33.18 144.732 33.02 144.012 32.7C143.292 32.3667 142.719 31.92 142.292 31.36C141.879 30.8 141.652 30.18 141.612 29.5H144.432C144.485 29.9267 144.692 30.28 145.052 30.56C145.425 30.84 145.885 30.98 146.432 30.98C146.965 30.98 147.379 30.8733 147.672 30.66C147.979 30.4467 148.132 30.1733 148.132 29.84C148.132 29.48 147.945 29.2133 147.572 29.04C147.212 28.8533 146.632 28.6533 145.832 28.44C145.005 28.24 144.325 28.0333 143.792 27.82C143.272 27.6067 142.819 27.28 142.432 26.84C142.059 26.4 141.872 25.8067 141.872 25.06C141.872 24.4467 142.045 23.8867 142.392 23.38C142.752 22.8733 143.259 22.4733 143.912 22.18C144.579 21.8867 145.359 21.74 146.252 21.74C147.572 21.74 148.625 22.0733 149.412 22.74C150.199 23.3933 150.632 24.28 150.712 25.4H148.032C147.992 24.96 147.805 24.6133 147.472 24.36C147.152 24.0933 146.719 23.96 146.172 23.96C145.665 23.96 145.272 24.0533 144.992 24.24C144.725 24.4267 144.592 24.6867 144.592 25.02C144.592 25.3933 144.779 25.68 145.152 25.88C145.525 26.0667 146.105 26.26 146.892 26.46C147.692 26.66 148.352 26.8667 148.872 27.08C149.392 27.2933 149.839 27.6267 150.212 28.08C150.599 28.52 150.799 29.1067 150.812 29.84C150.812 30.48 150.632 31.0533 150.272 31.56C149.925 32.0667 149.419 32.4667 148.752 32.76C148.099 33.04 147.332 33.18 146.452 33.18ZM156.37 24.22V29.58C156.37 29.9533 156.457 30.2267 156.63 30.4C156.817 30.56 157.124 30.64 157.55 30.64H158.85V33H157.09C154.73 33 153.55 31.8533 153.55 29.56V24.22H152.23V21.92H153.55V19.18H156.37V21.92H158.85V24.22H156.37ZM165.784 33.18C164.718 33.18 163.758 32.9467 162.904 32.48C162.051 32 161.378 31.3267 160.884 30.46C160.404 29.5933 160.164 28.5933 160.164 27.46C160.164 26.3267 160.411 25.3267 160.904 24.46C161.411 23.5933 162.098 22.9267 162.964 22.46C163.831 21.98 164.798 21.74 165.864 21.74C166.931 21.74 167.898 21.98 168.764 22.46C169.631 22.9267 170.311 23.5933 170.804 24.46C171.311 25.3267 171.564 26.3267 171.564 27.46C171.564 28.5933 171.304 29.5933 170.784 30.46C170.278 31.3267 169.584 32 168.704 32.48C167.838 32.9467 166.864 33.18 165.784 33.18ZM165.784 30.74C166.291 30.74 166.764 30.62 167.204 30.38C167.658 30.1267 168.018 29.7533 168.284 29.26C168.551 28.7667 168.684 28.1667 168.684 27.46C168.684 26.4067 168.404 25.6 167.844 25.04C167.298 24.4667 166.624 24.18 165.824 24.18C165.024 24.18 164.351 24.4667 163.804 25.04C163.271 25.6 163.004 26.4067 163.004 27.46C163.004 28.5133 163.264 29.3267 163.784 29.9C164.318 30.46 164.984 30.74 165.784 30.74ZM176.418 23.64C176.778 23.0533 177.245 22.5933 177.818 22.26C178.405 21.9267 179.072 21.76 179.818 21.76V24.7H179.078C178.198 24.7 177.532 24.9067 177.078 25.32C176.638 25.7333 176.418 26.4533 176.418 27.48V33H173.618V21.92H176.418V23.64ZM192.304 21.92L185.444 38.24H182.464L184.864 32.72L180.424 21.92H183.564L186.424 29.66L189.324 21.92H192.304Z" fill="white"/>
</svg>
