<svg width="246" height="31" viewBox="0 0 246 31" fill="none" xmlns="http://www.w3.org/2000/svg">
<path d="M54.856 22.592H47.872L46.672 26H43.816L49.792 9.296H52.96L58.936 26H56.056L54.856 22.592ZM54.088 20.36L51.376 12.608L48.64 20.36H54.088ZM60.6224 19.328C60.6224 18 60.8944 16.824 61.4384 15.8C61.9984 14.776 62.7504 13.984 63.6944 13.424C64.6544 12.848 65.7184 12.56 66.8864 12.56C67.7504 12.56 68.5984 12.752 69.4304 13.136C70.2784 13.504 70.9504 14 71.4464 14.624V8.24H74.2064V26H71.4464V24.008C70.9984 24.648 70.3744 25.176 69.5744 25.592C68.7904 26.008 67.8864 26.216 66.8624 26.216C65.7104 26.216 64.6544 25.928 63.6944 25.352C62.7504 24.76 61.9984 23.944 61.4384 22.904C60.8944 21.848 60.6224 20.656 60.6224 19.328ZM71.4464 19.376C71.4464 18.464 71.2544 17.672 70.8704 17C70.5024 16.328 70.0144 15.816 69.4064 15.464C68.7984 15.112 68.1424 14.936 67.4384 14.936C66.7344 14.936 66.0784 15.112 65.4704 15.464C64.8624 15.8 64.3664 16.304 63.9824 16.976C63.6144 17.632 63.4304 18.416 63.4304 19.328C63.4304 20.24 63.6144 21.04 63.9824 21.728C64.3664 22.416 64.8624 22.944 65.4704 23.312C66.0944 23.664 66.7504 23.84 67.4384 23.84C68.1424 23.84 68.7984 23.664 69.4064 23.312C70.0144 22.96 70.5024 22.448 70.8704 21.776C71.2544 21.088 71.4464 20.288 71.4464 19.376ZM76.888 19.328C76.888 18 77.16 16.824 77.704 15.8C78.264 14.776 79.016 13.984 79.96 13.424C80.92 12.848 81.984 12.56 83.152 12.56C84.016 12.56 84.864 12.752 85.696 13.136C86.544 13.504 87.216 14 87.712 14.624V8.24H90.472V26H87.712V24.008C87.264 24.648 86.64 25.176 85.84 25.592C85.056 26.008 84.152 26.216 83.128 26.216C81.976 26.216 80.92 25.928 79.96 25.352C79.016 24.76 78.264 23.944 77.704 22.904C77.16 21.848 76.888 20.656 76.888 19.328ZM87.712 19.376C87.712 18.464 87.52 17.672 87.136 17C86.768 16.328 86.28 15.816 85.672 15.464C85.064 15.112 84.408 14.936 83.704 14.936C83 14.936 82.344 15.112 81.736 15.464C81.128 15.8 80.632 16.304 80.248 16.976C79.88 17.632 79.696 18.416 79.696 19.328C79.696 20.24 79.88 21.04 80.248 21.728C80.632 22.416 81.128 22.944 81.736 23.312C82.36 23.664 83.016 23.84 83.704 23.84C84.408 23.84 85.064 23.664 85.672 23.312C86.28 22.96 86.768 22.448 87.136 21.776C87.52 21.088 87.712 20.288 87.712 19.376ZM114.004 26H111.268L103.036 13.544V26H100.3V9.296H103.036L111.268 21.728V9.296H114.004V26ZM129.717 19.064C129.717 19.56 129.685 20.008 129.621 20.408H119.517C119.597 21.464 119.989 22.312 120.693 22.952C121.397 23.592 122.261 23.912 123.285 23.912C124.757 23.912 125.797 23.296 126.405 22.064H129.357C128.957 23.28 128.229 24.28 127.173 25.064C126.133 25.832 124.837 26.216 123.285 26.216C122.021 26.216 120.885 25.936 119.877 25.376C118.885 24.8 118.101 24 117.525 22.976C116.965 21.936 116.685 20.736 116.685 19.376C116.685 18.016 116.957 16.824 117.501 15.8C118.061 14.76 118.837 13.96 119.829 13.4C120.837 12.84 121.989 12.56 123.285 12.56C124.533 12.56 125.645 12.832 126.621 13.376C127.597 13.92 128.357 14.688 128.901 15.68C129.445 16.656 129.717 17.784 129.717 19.064ZM126.861 18.2C126.845 17.192 126.485 16.384 125.781 15.776C125.077 15.168 124.205 14.864 123.165 14.864C122.221 14.864 121.413 15.168 120.741 15.776C120.069 16.368 119.669 17.176 119.541 18.2H126.861ZM150.169 12.776L146.065 26H143.185L140.521 16.232L137.857 26H134.977L130.849 12.776H133.633L136.393 23.408L139.201 12.776H142.057L144.745 23.36L147.481 12.776H150.169ZM167.376 17.432C168.272 17.592 169.032 18.064 169.656 18.848C170.28 19.632 170.592 20.52 170.592 21.512C170.592 22.36 170.368 23.128 169.92 23.816C169.488 24.488 168.856 25.024 168.024 25.424C167.192 25.808 166.224 26 165.12 26H158.448V9.32H164.808C165.944 9.32 166.92 9.512 167.736 9.896C168.552 10.28 169.168 10.8 169.584 11.456C170 12.096 170.208 12.816 170.208 13.616C170.208 14.576 169.952 15.376 169.44 16.016C168.928 16.656 168.24 17.128 167.376 17.432ZM161.184 16.328H164.568C165.464 16.328 166.16 16.128 166.656 15.728C167.168 15.312 167.424 14.72 167.424 13.952C167.424 13.2 167.168 12.616 166.656 12.2C166.16 11.768 165.464 11.552 164.568 11.552H161.184V16.328ZM164.88 23.768C165.808 23.768 166.536 23.544 167.064 23.096C167.592 22.648 167.856 22.024 167.856 21.224C167.856 20.408 167.576 19.76 167.016 19.28C166.456 18.8 165.712 18.56 164.784 18.56H161.184V23.768H164.88ZM172.654 19.328C172.654 18 172.926 16.824 173.47 15.8C174.03 14.776 174.782 13.984 175.726 13.424C176.686 12.848 177.742 12.56 178.894 12.56C179.934 12.56 180.838 12.768 181.606 13.184C182.39 13.584 183.014 14.088 183.478 14.696V12.776H186.238V26H183.478V24.032C183.014 24.656 182.382 25.176 181.582 25.592C180.782 26.008 179.87 26.216 178.846 26.216C177.71 26.216 176.67 25.928 175.726 25.352C174.782 24.76 174.03 23.944 173.47 22.904C172.926 21.848 172.654 20.656 172.654 19.328ZM183.478 19.376C183.478 18.464 183.286 17.672 182.902 17C182.534 16.328 182.046 15.816 181.438 15.464C180.83 15.112 180.174 14.936 179.47 14.936C178.766 14.936 178.11 15.112 177.502 15.464C176.894 15.8 176.398 16.304 176.014 16.976C175.646 17.632 175.462 18.416 175.462 19.328C175.462 20.24 175.646 21.04 176.014 21.728C176.398 22.416 176.894 22.944 177.502 23.312C178.126 23.664 178.782 23.84 179.47 23.84C180.174 23.84 180.83 23.664 181.438 23.312C182.046 22.96 182.534 22.448 182.902 21.776C183.286 21.088 183.478 20.288 183.478 19.376ZM193.023 15.008V22.328C193.023 22.824 193.135 23.184 193.359 23.408C193.599 23.616 193.999 23.72 194.559 23.72H196.239V26H194.079C192.847 26 191.903 25.712 191.247 25.136C190.591 24.56 190.263 23.624 190.263 22.328V15.008H188.703V12.776H190.263V9.488H193.023V12.776H196.239V15.008H193.023ZM197.849 19.376C197.849 18.016 198.121 16.824 198.665 15.8C199.225 14.76 199.993 13.96 200.969 13.4C201.945 12.84 203.065 12.56 204.329 12.56C205.929 12.56 207.249 12.944 208.289 13.712C209.345 14.464 210.057 15.544 210.425 16.952H207.473C207.233 16.296 206.849 15.784 206.321 15.416C205.793 15.048 205.129 14.864 204.329 14.864C203.209 14.864 202.313 15.264 201.641 16.064C200.985 16.848 200.657 17.952 200.657 19.376C200.657 20.8 200.985 21.912 201.641 22.712C202.313 23.512 203.209 23.912 204.329 23.912C205.913 23.912 206.961 23.216 207.473 21.824H210.425C210.041 23.168 209.321 24.24 208.265 25.04C207.209 25.824 205.897 26.216 204.329 26.216C203.065 26.216 201.945 25.936 200.969 25.376C199.993 24.8 199.225 24 198.665 22.976C198.121 21.936 197.849 20.736 197.849 19.376ZM219.992 12.56C221 12.56 221.896 12.776 222.68 13.208C223.48 13.64 224.104 14.28 224.552 15.128C225.016 15.976 225.248 17 225.248 18.2V26H222.536V18.608C222.536 17.424 222.24 16.52 221.648 15.896C221.056 15.256 220.248 14.936 219.224 14.936C218.2 14.936 217.384 15.256 216.776 15.896C216.184 16.52 215.888 17.424 215.888 18.608V26H213.152V8.24H215.888V14.312C216.352 13.752 216.936 13.32 217.64 13.016C218.36 12.712 219.144 12.56 219.992 12.56Z" fill="white"/>
<rect width="27" height="27" transform="translate(0 4)" fill="#1A1F37"/>
<path d="M14.625 10.75C14.625 10.4516 14.5065 10.1655 14.2955 9.95451C14.0845 9.74353 13.7984 9.625 13.5 9.625C13.2016 9.625 12.9155 9.74353 12.7045 9.95451C12.4935 10.1655 12.375 10.4516 12.375 10.75V16.375H6.75C6.45163 16.375 6.16548 16.4935 5.95451 16.7045C5.74353 16.9155 5.625 17.2016 5.625 17.5C5.625 17.7984 5.74353 18.0845 5.95451 18.2955C6.16548 18.5065 6.45163 18.625 6.75 18.625H12.375V24.25C12.375 24.5484 12.4935 24.8345 12.7045 25.0455C12.9155 25.2565 13.2016 25.375 13.5 25.375C13.7984 25.375 14.0845 25.2565 14.2955 25.0455C14.5065 24.8345 14.625 24.5484 14.625 24.25V18.625H20.25C20.5484 18.625 20.8345 18.5065 21.0455 18.2955C21.2565 18.0845 21.375 17.7984 21.375 17.5C21.375 17.2016 21.2565 16.9155 21.0455 16.7045C20.8345 16.4935 20.5484 16.375 20.25 16.375H14.625V10.75Z" fill="#0075FF"/>
</svg>
