<svg width="301" height="47" viewBox="0 0 301 47" fill="none" xmlns="http://www.w3.org/2000/svg">
<rect width="301" height="47" rx="9" fill="#414760"/>
<rect x="13" y="12" width="27" height="27" rx="6" fill="#0075FF"/>
<path d="M17.5 14.25H15.25V35.625C15.25 36.2437 15.7562 36.75 16.375 36.75H37.75V34.5H17.5V14.25Z" fill="white"/>
<path d="M30.325 26.4C30.775 26.7375 31.405 26.6925 31.7987 26.2987L37.4237 20.6737L35.8375 19.0875L30.8987 24.0262L27.175 21.2362C26.725 20.8987 26.095 20.9437 25.7012 21.3375L18.9512 28.0875L20.5375 29.6737L26.6012 23.61L30.325 26.4Z" fill="white"/>
<path d="M67.856 27.592H60.872L59.672 31H56.816L62.792 14.296H65.96L71.936 31H69.056L67.856 27.592ZM67.088 25.36L64.376 17.608L61.64 25.36H67.088ZM81.2064 17.56C82.2464 17.56 83.1744 17.776 83.9904 18.208C84.8224 18.64 85.4704 19.28 85.9344 20.128C86.3984 20.976 86.6304 22 86.6304 23.2V31H83.9184V23.608C83.9184 22.424 83.6224 21.52 83.0304 20.896C82.4384 20.256 81.6304 19.936 80.6064 19.936C79.5824 19.936 78.7664 20.256 78.1584 20.896C77.5664 21.52 77.2704 22.424 77.2704 23.608V31H74.5344V17.776H77.2704V19.288C77.7184 18.744 78.2864 18.32 78.9744 18.016C79.6784 17.712 80.4224 17.56 81.2064 17.56ZM89.2083 24.328C89.2083 23 89.4803 21.824 90.0243 20.8C90.5843 19.776 91.3363 18.984 92.2803 18.424C93.2403 17.848 94.2963 17.56 95.4483 17.56C96.4883 17.56 97.3923 17.768 98.1603 18.184C98.9443 18.584 99.5683 19.088 100.032 19.696V17.776H102.792V31H100.032V29.032C99.5683 29.656 98.9363 30.176 98.1363 30.592C97.3363 31.008 96.4243 31.216 95.4003 31.216C94.2643 31.216 93.2243 30.928 92.2803 30.352C91.3363 29.76 90.5843 28.944 90.0243 27.904C89.4803 26.848 89.2083 25.656 89.2083 24.328ZM100.032 24.376C100.032 23.464 99.8403 22.672 99.4563 22C99.0883 21.328 98.6003 20.816 97.9923 20.464C97.3843 20.112 96.7283 19.936 96.0243 19.936C95.3203 19.936 94.6643 20.112 94.0563 20.464C93.4483 20.8 92.9523 21.304 92.5683 21.976C92.2003 22.632 92.0163 23.416 92.0163 24.328C92.0163 25.24 92.2003 26.04 92.5683 26.728C92.9523 27.416 93.4483 27.944 94.0563 28.312C94.6803 28.664 95.3363 28.84 96.0243 28.84C96.7283 28.84 97.3843 28.664 97.9923 28.312C98.6003 27.96 99.0883 27.448 99.4563 26.776C99.8403 26.088 100.032 25.288 100.032 24.376ZM109.122 13.24V31H106.386V13.24H109.122ZM124.618 17.776L116.506 37.216H113.674L116.362 30.784L111.154 17.776H114.202L117.922 27.856L121.786 17.776H124.618ZM129.875 20.008V27.328C129.875 27.824 129.987 28.184 130.211 28.408C130.451 28.616 130.851 28.72 131.411 28.72H133.091V31H130.931C129.699 31 128.755 30.712 128.099 30.136C127.443 29.56 127.115 28.624 127.115 27.328V20.008H125.555V17.776H127.115V14.488H129.875V17.776H133.091V20.008H129.875ZM137.005 16.024C136.509 16.024 136.093 15.856 135.757 15.52C135.421 15.184 135.253 14.768 135.253 14.272C135.253 13.776 135.421 13.36 135.757 13.024C136.093 12.688 136.509 12.52 137.005 12.52C137.485 12.52 137.893 12.688 138.229 13.024C138.565 13.36 138.733 13.776 138.733 14.272C138.733 14.768 138.565 15.184 138.229 15.52C137.893 15.856 137.485 16.024 137.005 16.024ZM138.349 17.776V31H135.613V17.776H138.349ZM141.029 24.376C141.029 23.016 141.301 21.824 141.845 20.8C142.405 19.76 143.173 18.96 144.149 18.4C145.125 17.84 146.245 17.56 147.509 17.56C149.109 17.56 150.429 17.944 151.469 18.712C152.525 19.464 153.237 20.544 153.605 21.952H150.653C150.413 21.296 150.029 20.784 149.501 20.416C148.973 20.048 148.309 19.864 147.509 19.864C146.389 19.864 145.493 20.264 144.821 21.064C144.165 21.848 143.837 22.952 143.837 24.376C143.837 25.8 144.165 26.912 144.821 27.712C145.493 28.512 146.389 28.912 147.509 28.912C149.093 28.912 150.141 28.216 150.653 26.824H153.605C153.221 28.168 152.501 29.24 151.445 30.04C150.389 30.824 149.077 31.216 147.509 31.216C146.245 31.216 145.125 30.936 144.149 30.376C143.173 29.8 142.405 29 141.845 27.976C141.301 26.936 141.029 25.736 141.029 24.376ZM161.131 31.216C160.091 31.216 159.155 31.032 158.323 30.664C157.507 30.28 156.859 29.768 156.379 29.128C155.899 28.472 155.643 27.744 155.611 26.944H158.443C158.491 27.504 158.755 27.976 159.235 28.36C159.731 28.728 160.347 28.912 161.083 28.912C161.851 28.912 162.443 28.768 162.859 28.48C163.291 28.176 163.507 27.792 163.507 27.328C163.507 26.832 163.267 26.464 162.787 26.224C162.323 25.984 161.579 25.72 160.555 25.432C159.563 25.16 158.755 24.896 158.131 24.64C157.507 24.384 156.963 23.992 156.499 23.464C156.051 22.936 155.827 22.24 155.827 21.376C155.827 20.672 156.035 20.032 156.451 19.456C156.867 18.864 157.459 18.4 158.227 18.064C159.011 17.728 159.907 17.56 160.915 17.56C162.419 17.56 163.627 17.944 164.539 18.712C165.467 19.464 165.963 20.496 166.027 21.808H163.291C163.243 21.216 163.003 20.744 162.571 20.392C162.139 20.04 161.555 19.864 160.819 19.864C160.099 19.864 159.547 20 159.163 20.272C158.779 20.544 158.587 20.904 158.587 21.352C158.587 21.704 158.715 22 158.971 22.24C159.227 22.48 159.539 22.672 159.907 22.816C160.275 22.944 160.819 23.112 161.539 23.32C162.499 23.576 163.283 23.84 163.891 24.112C164.515 24.368 165.051 24.752 165.499 25.264C165.947 25.776 166.179 26.456 166.195 27.304C166.195 28.056 165.987 28.728 165.571 29.32C165.155 29.912 164.563 30.376 163.795 30.712C163.043 31.048 162.155 31.216 161.131 31.216Z" fill="white"/>
</svg>
