<svg width="270" height="33" viewBox="0 0 270 33" fill="none" xmlns="http://www.w3.org/2000/svg">
<path d="M53.728 17.432C54.624 17.592 55.384 18.064 56.008 18.848C56.632 19.632 56.944 20.52 56.944 21.512C56.944 22.36 56.72 23.128 56.272 23.816C55.84 24.488 55.208 25.024 54.376 25.424C53.544 25.808 52.576 26 51.472 26H44.8V9.32H51.16C52.296 9.32 53.272 9.512 54.088 9.896C54.904 10.28 55.52 10.8 55.936 11.456C56.352 12.096 56.56 12.816 56.56 13.616C56.56 14.576 56.304 15.376 55.792 16.016C55.28 16.656 54.592 17.128 53.728 17.432ZM47.536 16.328H50.92C51.816 16.328 52.512 16.128 53.008 15.728C53.52 15.312 53.776 14.72 53.776 13.952C53.776 13.2 53.52 12.616 53.008 12.2C52.512 11.768 51.816 11.552 50.92 11.552H47.536V16.328ZM51.232 23.768C52.16 23.768 52.888 23.544 53.416 23.096C53.944 22.648 54.208 22.024 54.208 21.224C54.208 20.408 53.928 19.76 53.368 19.28C52.808 18.8 52.064 18.56 51.136 18.56H47.536V23.768H51.232ZM61.3092 11.024C60.8132 11.024 60.3972 10.856 60.0612 10.52C59.7252 10.184 59.5572 9.768 59.5572 9.272C59.5572 8.776 59.7252 8.36 60.0612 8.024C60.3972 7.688 60.8132 7.52 61.3092 7.52C61.7892 7.52 62.1972 7.688 62.5332 8.024C62.8692 8.36 63.0372 8.776 63.0372 9.272C63.0372 9.768 62.8692 10.184 62.5332 10.52C62.1972 10.856 61.7892 11.024 61.3092 11.024ZM62.6532 12.776V26H59.9172V12.776H62.6532ZM76.3973 16.16V18.464H66.5333V16.16H76.3973ZM102.004 9.32L97.0604 26H93.9644L90.4604 13.376L86.7404 26L83.6684 26.024L78.9404 9.32H81.8444L85.3004 22.904L89.0444 9.32H92.1164L95.5964 22.832L99.0764 9.32H102.004ZM116.381 19.064C116.381 19.56 116.349 20.008 116.285 20.408H106.181C106.261 21.464 106.653 22.312 107.357 22.952C108.061 23.592 108.925 23.912 109.949 23.912C111.421 23.912 112.461 23.296 113.069 22.064H116.021C115.621 23.28 114.893 24.28 113.837 25.064C112.797 25.832 111.501 26.216 109.949 26.216C108.685 26.216 107.549 25.936 106.541 25.376C105.549 24.8 104.765 24 104.189 22.976C103.629 21.936 103.349 20.736 103.349 19.376C103.349 18.016 103.621 16.824 104.165 15.8C104.725 14.76 105.501 13.96 106.493 13.4C107.501 12.84 108.653 12.56 109.949 12.56C111.197 12.56 112.309 12.832 113.285 13.376C114.261 13.92 115.021 14.688 115.565 15.68C116.109 16.656 116.381 17.784 116.381 19.064ZM113.525 18.2C113.509 17.192 113.149 16.384 112.445 15.776C111.741 15.168 110.869 14.864 109.829 14.864C108.885 14.864 108.077 15.168 107.405 15.776C106.733 16.368 106.333 17.176 106.205 18.2H113.525ZM131.193 19.064C131.193 19.56 131.161 20.008 131.097 20.408H120.993C121.073 21.464 121.465 22.312 122.169 22.952C122.873 23.592 123.737 23.912 124.761 23.912C126.233 23.912 127.273 23.296 127.881 22.064H130.833C130.433 23.28 129.705 24.28 128.649 25.064C127.609 25.832 126.313 26.216 124.761 26.216C123.497 26.216 122.361 25.936 121.353 25.376C120.361 24.8 119.577 24 119.001 22.976C118.441 21.936 118.161 20.736 118.161 19.376C118.161 18.016 118.433 16.824 118.977 15.8C119.537 14.76 120.313 13.96 121.305 13.4C122.313 12.84 123.465 12.56 124.761 12.56C126.009 12.56 127.121 12.832 128.097 13.376C129.073 13.92 129.833 14.688 130.377 15.68C130.921 16.656 131.193 17.784 131.193 19.064ZM128.337 18.2C128.321 17.192 127.961 16.384 127.257 15.776C126.553 15.168 125.681 14.864 124.641 14.864C123.697 14.864 122.889 15.168 122.217 15.776C121.545 16.368 121.145 17.176 121.017 18.2H128.337ZM139.118 19.4L145.214 26H141.518L136.622 20.312V26H133.886V8.24H136.622V18.56L141.422 12.776H145.214L139.118 19.4ZM149.911 8.24V26H147.175V8.24H149.911ZM165.407 12.776L157.295 32.216H154.463L157.151 25.784L151.943 12.776H154.991L158.711 22.856L162.575 12.776H165.407ZM179.202 26.168C178.082 26.168 177.074 25.976 176.178 25.592C175.282 25.192 174.578 24.632 174.066 23.912C173.554 23.192 173.298 22.352 173.298 21.392H176.226C176.29 22.112 176.57 22.704 177.066 23.168C177.578 23.632 178.29 23.864 179.202 23.864C180.146 23.864 180.882 23.64 181.41 23.192C181.938 22.728 182.202 22.136 182.202 21.416C182.202 20.856 182.034 20.4 181.698 20.048C181.378 19.696 180.97 19.424 180.474 19.232C179.994 19.04 179.322 18.832 178.458 18.608C177.37 18.32 176.482 18.032 175.794 17.744C175.122 17.44 174.546 16.976 174.066 16.352C173.586 15.728 173.346 14.896 173.346 13.856C173.346 12.896 173.586 12.056 174.066 11.336C174.546 10.616 175.218 10.064 176.082 9.68C176.946 9.296 177.946 9.104 179.082 9.104C180.698 9.104 182.018 9.512 183.042 10.328C184.082 11.128 184.658 12.232 184.77 13.64H181.746C181.698 13.032 181.41 12.512 180.882 12.08C180.354 11.648 179.658 11.432 178.794 11.432C178.01 11.432 177.37 11.632 176.874 12.032C176.378 12.432 176.13 13.008 176.13 13.76C176.13 14.272 176.282 14.696 176.586 15.032C176.906 15.352 177.306 15.608 177.786 15.8C178.266 15.992 178.922 16.2 179.754 16.424C180.858 16.728 181.754 17.032 182.442 17.336C183.146 17.64 183.738 18.112 184.218 18.752C184.714 19.376 184.962 20.216 184.962 21.272C184.962 22.12 184.73 22.92 184.266 23.672C183.818 24.424 183.154 25.032 182.274 25.496C181.41 25.944 180.386 26.168 179.202 26.168ZM187.279 19.328C187.279 18 187.551 16.824 188.095 15.8C188.655 14.776 189.407 13.984 190.351 13.424C191.311 12.848 192.367 12.56 193.519 12.56C194.559 12.56 195.463 12.768 196.231 13.184C197.015 13.584 197.639 14.088 198.103 14.696V12.776H200.863V26H198.103V24.032C197.639 24.656 197.007 25.176 196.207 25.592C195.407 26.008 194.495 26.216 193.471 26.216C192.335 26.216 191.295 25.928 190.351 25.352C189.407 24.76 188.655 23.944 188.095 22.904C187.551 21.848 187.279 20.656 187.279 19.328ZM198.103 19.376C198.103 18.464 197.911 17.672 197.527 17C197.159 16.328 196.671 15.816 196.063 15.464C195.455 15.112 194.799 14.936 194.095 14.936C193.391 14.936 192.735 15.112 192.127 15.464C191.519 15.8 191.023 16.304 190.639 16.976C190.271 17.632 190.087 18.416 190.087 19.328C190.087 20.24 190.271 21.04 190.639 21.728C191.023 22.416 191.519 22.944 192.127 23.312C192.751 23.664 193.407 23.84 194.095 23.84C194.799 23.84 195.455 23.664 196.063 23.312C196.671 22.96 197.159 22.448 197.527 21.776C197.911 21.088 198.103 20.288 198.103 19.376ZM220.464 12.56C221.504 12.56 222.432 12.776 223.248 13.208C224.08 13.64 224.728 14.28 225.192 15.128C225.672 15.976 225.912 17 225.912 18.2V26H223.2V18.608C223.2 17.424 222.904 16.52 222.312 15.896C221.72 15.256 220.912 14.936 219.888 14.936C218.864 14.936 218.048 15.256 217.44 15.896C216.848 16.52 216.552 17.424 216.552 18.608V26H213.84V18.608C213.84 17.424 213.544 16.52 212.952 15.896C212.36 15.256 211.552 14.936 210.528 14.936C209.504 14.936 208.688 15.256 208.08 15.896C207.488 16.52 207.192 17.424 207.192 18.608V26H204.456V12.776H207.192V14.288C207.64 13.744 208.208 13.32 208.896 13.016C209.584 12.712 210.32 12.56 211.104 12.56C212.16 12.56 213.104 12.784 213.936 13.232C214.768 13.68 215.408 14.328 215.856 15.176C216.256 14.376 216.88 13.744 217.728 13.28C218.576 12.8 219.488 12.56 220.464 12.56ZM232.13 14.72C232.594 14.112 233.226 13.6 234.026 13.184C234.826 12.768 235.73 12.56 236.738 12.56C237.89 12.56 238.938 12.848 239.882 13.424C240.842 13.984 241.594 14.776 242.138 15.8C242.682 16.824 242.954 18 242.954 19.328C242.954 20.656 242.682 21.848 242.138 22.904C241.594 23.944 240.842 24.76 239.882 25.352C238.938 25.928 237.89 26.216 236.738 26.216C235.73 26.216 234.834 26.016 234.05 25.616C233.266 25.2 232.626 24.688 232.13 24.08V32.288H229.394V12.776H232.13V14.72ZM240.17 19.328C240.17 18.416 239.978 17.632 239.594 16.976C239.226 16.304 238.73 15.8 238.106 15.464C237.498 15.112 236.842 14.936 236.138 14.936C235.45 14.936 234.794 15.112 234.17 15.464C233.562 15.816 233.066 16.328 232.682 17C232.314 17.672 232.13 18.464 232.13 19.376C232.13 20.288 232.314 21.088 232.682 21.776C233.066 22.448 233.562 22.96 234.17 23.312C234.794 23.664 235.45 23.84 236.138 23.84C236.842 23.84 237.498 23.664 238.106 23.312C238.73 22.944 239.226 22.416 239.594 21.728C239.978 21.04 240.17 20.24 240.17 19.328ZM248.395 8.24V26H245.659V8.24H248.395ZM264.108 19.064C264.108 19.56 264.076 20.008 264.012 20.408H253.908C253.988 21.464 254.38 22.312 255.084 22.952C255.788 23.592 256.652 23.912 257.676 23.912C259.148 23.912 260.188 23.296 260.796 22.064H263.747C263.348 23.28 262.62 24.28 261.564 25.064C260.524 25.832 259.228 26.216 257.676 26.216C256.412 26.216 255.276 25.936 254.268 25.376C253.276 24.8 252.492 24 251.916 22.976C251.356 21.936 251.076 20.736 251.076 19.376C251.076 18.016 251.348 16.824 251.892 15.8C252.452 14.76 253.228 13.96 254.22 13.4C255.228 12.84 256.38 12.56 257.676 12.56C258.924 12.56 260.036 12.832 261.012 13.376C261.988 13.92 262.748 14.688 263.292 15.68C263.836 16.656 264.108 17.784 264.108 19.064ZM261.252 18.2C261.236 17.192 260.876 16.384 260.172 15.776C259.468 15.168 258.596 14.864 257.556 14.864C256.612 14.864 255.804 15.168 255.132 15.776C254.46 16.368 254.06 17.176 253.932 18.2H261.252Z" fill="white"/>
<rect width="27" height="27" transform="translate(0 5)" fill="#1A1F37"/>
<path d="M18.0932 6.35529C18.1195 8.00218 18.8578 9.42654 20.1023 11.0012L20.3186 11.2754L18.0035 14.6504H21.1992L21.8637 11.8608L22.2012 11.8238C23.1873 11.7236 24.3633 11.2859 25.3652 10.7744C25.7396 10.5793 26.0824 10.3789 26.3988 10.1785C26.1773 10.1785 26.0086 10.1854 25.7555 10.1785C24.5742 10.1464 23.1873 10.0456 22.2012 9.63747C21.1254 9.1887 19.9547 8.17198 19.0002 7.26179C18.6521 6.92904 18.3516 6.62687 18.0932 6.35529ZM3.95139 6.41857C2.92887 8.94138 3.92555 12.425 5.20752 14.6504H6.27539C6.2332 14.5238 6.21211 14.392 6.21211 14.2549C6.21211 13.5324 6.80801 12.9365 7.53047 12.9365C8.25293 12.9365 8.84883 13.5324 8.84883 14.2549C8.84883 14.392 8.82773 14.5238 8.78555 14.6504H11.9865C11.1428 12.6887 9.78223 10.2893 7.62012 8.48259C7.88906 9.49351 8.26348 10.4738 8.8752 11.4125L8.07363 11.9293C7.1666 10.5266 6.73945 9.06109 6.44414 7.61669C5.69531 7.13523 4.86738 6.72601 3.95139 6.41857ZM7.53047 13.8858C7.31953 13.8858 7.16133 14.044 7.16133 14.2549C7.16133 14.4658 7.31953 14.624 7.53047 14.624C7.74141 14.624 7.89961 14.4658 7.89961 14.2549C7.89961 14.044 7.74141 13.8858 7.53047 13.8858ZM4.69336 15.5996V17.1817H15.0557C15.1453 16.8758 15.2297 16.5647 15.3193 16.2535L16.2369 16.5067C16.1736 16.7334 16.1104 16.9549 16.0471 17.1817H22.3066V15.5996H4.69336ZM5.63203 18.1309L7.29316 26.9639C9.81387 25.9303 11.4381 24.4959 12.6035 22.8137C13.5791 21.4057 14.2277 19.8078 14.7604 18.1309H5.63203ZM15.7623 18.1309C15.198 19.9555 14.4967 21.7432 13.3787 23.3568C12.092 25.2078 10.241 26.8109 7.46719 27.9131L7.98926 30.6817H19.0107L21.368 18.1309H15.7623Z" fill="#0075FF"/>
</svg>
