<svg width="301" height="47" viewBox="0 0 301 47" fill="none" xmlns="http://www.w3.org/2000/svg">
<rect width="301" height="47" rx="9" fill="#414760"/>
<rect x="13" y="9" width="27" height="27" rx="6" fill="#0075FF"/>
<path d="M37.1875 12.375H34.0938C34.0192 12.375 33.9476 12.3454 33.8949 12.2926C33.8421 12.2399 33.8125 12.1683 33.8125 12.0938V10.125C33.8125 9.82663 33.694 9.54048 33.483 9.3295C33.272 9.11853 32.9859 9 32.6875 9C32.3891 9 32.103 9.11853 31.892 9.3295C31.681 9.54048 31.5625 9.82663 31.5625 10.125V15.4688C31.5625 15.6925 31.4736 15.9071 31.3154 16.0654C31.1571 16.2236 30.9425 16.3125 30.7188 16.3125C30.495 16.3125 30.2804 16.2236 30.1221 16.0654C29.9639 15.9071 29.875 15.6925 29.875 15.4688V12.9375C29.875 12.7883 29.8157 12.6452 29.7102 12.5398C29.6048 12.4343 29.4617 12.375 29.3125 12.375H22.2812C22.2067 12.375 22.1351 12.3454 22.0824 12.2926C22.0296 12.2399 22 12.1683 22 12.0938V10.125C22 9.82663 21.8815 9.54048 21.6705 9.3295C21.4595 9.11853 21.1734 9 20.875 9C20.5766 9 20.2905 9.11853 20.0795 9.3295C19.8685 9.54048 19.75 9.82663 19.75 10.125V15.4688C19.75 15.6925 19.6611 15.9071 19.5029 16.0654C19.3446 16.2236 19.13 16.3125 18.9062 16.3125C18.6825 16.3125 18.4679 16.2236 18.3096 16.0654C18.1514 15.9071 18.0625 15.6925 18.0625 15.4688V12.9375C18.0625 12.7883 18.0032 12.6452 17.8977 12.5398C17.7923 12.4343 17.6492 12.375 17.5 12.375H15.8125C15.2158 12.375 14.6435 12.6121 14.2215 13.034C13.7996 13.456 13.5625 14.0283 13.5625 14.625V33.75C13.5625 34.3467 13.7996 34.919 14.2215 35.341C14.6435 35.7629 15.2158 36 15.8125 36H37.1875C37.7842 36 38.3565 35.7629 38.7785 35.341C39.2004 34.919 39.4375 34.3467 39.4375 33.75V14.625C39.4375 14.0283 39.2004 13.456 38.7785 13.034C38.3565 12.6121 37.7842 12.375 37.1875 12.375ZM37.1875 33.1875C37.1875 33.3367 37.1282 33.4798 37.0227 33.5852C36.9173 33.6907 36.7742 33.75 36.625 33.75H16.375C16.2258 33.75 16.0827 33.6907 15.9773 33.5852C15.8718 33.4798 15.8125 33.3367 15.8125 33.1875V19.6875C15.8125 19.5383 15.8718 19.3952 15.9773 19.2898C16.0827 19.1843 16.2258 19.125 16.375 19.125H36.625C36.7742 19.125 36.9173 19.1843 37.0227 19.2898C37.1282 19.3952 37.1875 19.5383 37.1875 19.6875V33.1875Z" fill="white"/>
<path d="M26.6687 21.5437C26.3816 21.4065 26.0616 21.3528 25.7453 21.3886C25.4291 21.4244 25.1292 21.5483 24.88 21.7462L22.9787 23.265C22.7565 23.4548 22.6168 23.7237 22.5893 24.0146C22.5618 24.3056 22.6486 24.5959 22.8314 24.824C23.0141 25.0521 23.2785 25.2001 23.5685 25.2367C23.8585 25.2733 24.1513 25.1956 24.385 25.02L25.375 24.2325V30.375C25.375 30.6734 25.4935 30.9595 25.7045 31.1705C25.9155 31.3815 26.2016 31.5 26.5 31.5C26.7984 31.5 27.0845 31.3815 27.2955 31.1705C27.5065 30.9595 27.625 30.6734 27.625 30.375V23.0625C27.6246 22.745 27.5347 22.4341 27.3655 22.1655C27.1964 21.8968 26.9549 21.6813 26.6687 21.5437Z" fill="white"/>
<path d="M63.248 16.32C65.024 16.32 66.576 16.664 67.904 17.352C69.248 18.024 70.28 19 71 20.28C71.736 21.544 72.104 23.024 72.104 24.72C72.104 26.416 71.736 27.888 71 29.136C70.28 30.384 69.248 31.344 67.904 32.016C66.576 32.672 65.024 33 63.248 33H57.8V16.32H63.248ZM63.248 30.768C65.2 30.768 66.696 30.24 67.736 29.184C68.776 28.128 69.296 26.64 69.296 24.72C69.296 22.784 68.776 21.272 67.736 20.184C66.696 19.096 65.2 18.552 63.248 18.552H60.536V30.768H63.248ZM73.9036 26.328C73.9036 25 74.1756 23.824 74.7196 22.8C75.2796 21.776 76.0316 20.984 76.9756 20.424C77.9356 19.848 78.9916 19.56 80.1436 19.56C81.1836 19.56 82.0876 19.768 82.8556 20.184C83.6396 20.584 84.2636 21.088 84.7276 21.696V19.776H87.4876V33H84.7276V31.032C84.2636 31.656 83.6316 32.176 82.8316 32.592C82.0316 33.008 81.1196 33.216 80.0956 33.216C78.9596 33.216 77.9196 32.928 76.9756 32.352C76.0316 31.76 75.2796 30.944 74.7196 29.904C74.1756 28.848 73.9036 27.656 73.9036 26.328ZM84.7276 26.376C84.7276 25.464 84.5356 24.672 84.1516 24C83.7836 23.328 83.2956 22.816 82.6876 22.464C82.0796 22.112 81.4236 21.936 80.7196 21.936C80.0156 21.936 79.3596 22.112 78.7516 22.464C78.1436 22.8 77.6476 23.304 77.2636 23.976C76.8956 24.632 76.7116 25.416 76.7116 26.328C76.7116 27.24 76.8956 28.04 77.2636 28.728C77.6476 29.416 78.1436 29.944 78.7516 30.312C79.3756 30.664 80.0316 30.84 80.7196 30.84C81.4236 30.84 82.0796 30.664 82.6876 30.312C83.2956 29.96 83.7836 29.448 84.1516 28.776C84.5356 28.088 84.7276 27.288 84.7276 26.376ZM92.4733 18.024C91.9773 18.024 91.5613 17.856 91.2253 17.52C90.8893 17.184 90.7213 16.768 90.7213 16.272C90.7213 15.776 90.8893 15.36 91.2253 15.024C91.5613 14.688 91.9773 14.52 92.4733 14.52C92.9533 14.52 93.3613 14.688 93.6973 15.024C94.0333 15.36 94.2013 15.776 94.2013 16.272C94.2013 16.768 94.0333 17.184 93.6973 17.52C93.3613 17.856 92.9533 18.024 92.4733 18.024ZM93.8173 19.776V33H91.0813V19.776H93.8173ZM100.145 15.24V33H97.4094V15.24H100.145ZM115.642 19.776L107.53 39.216H104.698L107.386 32.784L102.178 19.776H105.226L108.946 29.856L112.81 19.776H115.642ZM126.677 30.792H132.317V33H123.941V16.32H126.677V30.792ZM140.341 33.216C139.093 33.216 137.965 32.936 136.957 32.376C135.949 31.8 135.157 31 134.581 29.976C134.005 28.936 133.717 27.736 133.717 26.376C133.717 25.032 134.013 23.84 134.605 22.8C135.197 21.76 136.005 20.96 137.029 20.4C138.053 19.84 139.197 19.56 140.461 19.56C141.725 19.56 142.869 19.84 143.893 20.4C144.917 20.96 145.725 21.76 146.317 22.8C146.909 23.84 147.205 25.032 147.205 26.376C147.205 27.72 146.901 28.912 146.293 29.952C145.685 30.992 144.853 31.8 143.797 32.376C142.757 32.936 141.605 33.216 140.341 33.216ZM140.341 30.84C141.045 30.84 141.701 30.672 142.309 30.336C142.933 30 143.437 29.496 143.821 28.824C144.205 28.152 144.397 27.336 144.397 26.376C144.397 25.416 144.213 24.608 143.845 23.952C143.477 23.28 142.989 22.776 142.381 22.44C141.773 22.104 141.117 21.936 140.413 21.936C139.709 21.936 139.053 22.104 138.445 22.44C137.853 22.776 137.381 23.28 137.029 23.952C136.677 24.608 136.501 25.416 136.501 26.376C136.501 27.8 136.861 28.904 137.581 29.688C138.317 30.456 139.237 30.84 140.341 30.84ZM155.237 19.56C156.261 19.56 157.165 19.768 157.949 20.184C158.749 20.584 159.373 21.088 159.821 21.696V19.776H162.581V33.216C162.581 34.432 162.325 35.512 161.813 36.456C161.301 37.416 160.557 38.168 159.581 38.712C158.621 39.256 157.469 39.528 156.125 39.528C154.333 39.528 152.845 39.104 151.661 38.256C150.477 37.424 149.805 36.288 149.645 34.848H152.357C152.565 35.536 153.005 36.088 153.677 36.504C154.365 36.936 155.181 37.152 156.125 37.152C157.229 37.152 158.117 36.816 158.789 36.144C159.477 35.472 159.821 34.496 159.821 33.216V31.008C159.357 31.632 158.725 32.16 157.925 32.592C157.141 33.008 156.245 33.216 155.237 33.216C154.085 33.216 153.029 32.928 152.069 32.352C151.125 31.76 150.373 30.944 149.813 29.904C149.269 28.848 148.997 27.656 148.997 26.328C148.997 25 149.269 23.824 149.813 22.8C150.373 21.776 151.125 20.984 152.069 20.424C153.029 19.848 154.085 19.56 155.237 19.56ZM159.821 26.376C159.821 25.464 159.629 24.672 159.245 24C158.877 23.328 158.389 22.816 157.781 22.464C157.173 22.112 156.517 21.936 155.813 21.936C155.109 21.936 154.453 22.112 153.845 22.464C153.237 22.8 152.741 23.304 152.357 23.976C151.989 24.632 151.805 25.416 151.805 26.328C151.805 27.24 151.989 28.04 152.357 28.728C152.741 29.416 153.237 29.944 153.845 30.312C154.469 30.664 155.125 30.84 155.813 30.84C156.517 30.84 157.173 30.664 157.781 30.312C158.389 29.96 158.877 29.448 159.245 28.776C159.629 28.088 159.821 27.288 159.821 26.376ZM170.975 33.216C169.935 33.216 168.999 33.032 168.167 32.664C167.351 32.28 166.703 31.768 166.223 31.128C165.743 30.472 165.487 29.744 165.455 28.944H168.287C168.335 29.504 168.599 29.976 169.079 30.36C169.575 30.728 170.191 30.912 170.927 30.912C171.695 30.912 172.287 30.768 172.703 30.48C173.135 30.176 173.351 29.792 173.351 29.328C173.351 28.832 173.111 28.464 172.631 28.224C172.167 27.984 171.423 27.72 170.399 27.432C169.407 27.16 168.599 26.896 167.975 26.64C167.351 26.384 166.807 25.992 166.343 25.464C165.895 24.936 165.671 24.24 165.671 23.376C165.671 22.672 165.879 22.032 166.295 21.456C166.711 20.864 167.303 20.4 168.071 20.064C168.855 19.728 169.751 19.56 170.759 19.56C172.263 19.56 173.471 19.944 174.383 20.712C175.311 21.464 175.807 22.496 175.871 23.808H173.135C173.087 23.216 172.847 22.744 172.415 22.392C171.983 22.04 171.399 21.864 170.663 21.864C169.943 21.864 169.391 22 169.007 22.272C168.623 22.544 168.431 22.904 168.431 23.352C168.431 23.704 168.559 24 168.815 24.24C169.071 24.48 169.383 24.672 169.751 24.816C170.119 24.944 170.663 25.112 171.383 25.32C172.343 25.576 173.127 25.84 173.735 26.112C174.359 26.368 174.895 26.752 175.343 27.264C175.791 27.776 176.023 28.456 176.039 29.304C176.039 30.056 175.831 30.728 175.415 31.32C174.999 31.912 174.407 32.376 173.639 32.712C172.887 33.048 171.999 33.216 170.975 33.216Z" fill="white"/>
</svg>
