<svg width="50" height="40" viewBox="0 0 50 40" fill="none" xmlns="http://www.w3.org/2000/svg">
<rect width="50" height="40" rx="10" fill="#B80003" fill-opacity="0.85"/>
<path d="M16.6121 13.0701L17.3353 29.5797C17.3922 30.9924 18.2398 31.7609 19.6294 31.7609H29.3817C30.7717 31.7609 31.6188 30.9924 31.6757 29.5797L32.3989 13.0701H33.6983C34.1616 13.0701 34.5343 12.6859 34.5343 12.2225C34.5343 11.7597 34.1616 11.3638 33.6983 11.3638H29.0538V9.74769C29.0538 8.20002 28.0254 7.23911 26.5679 7.23911H22.4094C20.9519 7.23911 19.9346 8.20002 19.9346 9.74769V11.3638H15.3128C14.861 11.3638 14.4651 11.7592 14.4651 12.2225C14.4651 12.6859 14.8605 13.0701 15.3128 13.0701H16.6121ZM21.4716 9.74818C21.4716 9.10403 21.9461 8.65178 22.624 8.65178H26.3644C27.0539 8.65178 27.5283 9.10403 27.5283 9.74769V11.3638H21.4721L21.4716 9.74818ZM28.1725 29.4553C27.7318 29.4553 27.4266 29.0715 27.4382 28.6082L27.901 15.4997C27.9242 15.0479 28.2515 14.6752 28.6585 14.6752C29.0765 14.6752 29.4154 15.0368 29.4043 15.4997L28.8957 28.6192C28.8846 29.1052 28.5905 29.4553 28.1725 29.4553ZM20.8391 29.4553C20.4206 29.4553 20.127 29.1052 20.1159 28.6192L19.6072 15.5001C19.5956 15.0252 19.9351 14.6747 20.3526 14.6747C20.7595 14.6747 21.0985 15.0479 21.1096 15.4997L21.5734 28.6082C21.5845 29.071 21.2798 29.4553 20.8391 29.4553ZM25.2791 28.6082C25.2791 29.071 24.9175 29.4553 24.5106 29.4553C24.1041 29.4553 23.7425 29.0715 23.7425 28.6082V15.4997C23.7425 15.0479 24.1041 14.6752 24.5106 14.6752C24.9175 14.6752 25.2907 15.0479 25.2907 15.4997L25.2791 28.6082Z" fill="black"/>
</svg>
