<svg width="301" height="47" viewBox="0 0 301 47" fill="none" xmlns="http://www.w3.org/2000/svg">
<rect width="301" height="47" rx="9" fill="#414760"/>
<path d="M67.856 28.592H60.872L59.672 32H56.816L62.792 15.296H65.96L71.936 32H69.056L67.856 28.592ZM67.088 26.36L64.376 18.608L61.64 26.36H67.088ZM73.6224 25.328C73.6224 24 73.8944 22.824 74.4384 21.8C74.9984 20.776 75.7504 19.984 76.6944 19.424C77.6544 18.848 78.7184 18.56 79.8864 18.56C80.7504 18.56 81.5984 18.752 82.4304 19.136C83.2784 19.504 83.9504 20 84.4464 20.624V14.24H87.2064V32H84.4464V30.008C83.9984 30.648 83.3744 31.176 82.5744 31.592C81.7904 32.008 80.8864 32.216 79.8624 32.216C78.7104 32.216 77.6544 31.928 76.6944 31.352C75.7504 30.76 74.9984 29.944 74.4384 28.904C73.8944 27.848 73.6224 26.656 73.6224 25.328ZM84.4464 25.376C84.4464 24.464 84.2544 23.672 83.8704 23C83.5024 22.328 83.0144 21.816 82.4064 21.464C81.7984 21.112 81.1424 20.936 80.4384 20.936C79.7344 20.936 79.0784 21.112 78.4704 21.464C77.8624 21.8 77.3664 22.304 76.9824 22.976C76.6144 23.632 76.4304 24.416 76.4304 25.328C76.4304 26.24 76.6144 27.04 76.9824 27.728C77.3664 28.416 77.8624 28.944 78.4704 29.312C79.0944 29.664 79.7504 29.84 80.4384 29.84C81.1424 29.84 81.7984 29.664 82.4064 29.312C83.0144 28.96 83.5024 28.448 83.8704 27.776C84.2544 27.088 84.4464 26.288 84.4464 25.376ZM89.888 25.328C89.888 24 90.16 22.824 90.704 21.8C91.264 20.776 92.016 19.984 92.96 19.424C93.92 18.848 94.984 18.56 96.152 18.56C97.016 18.56 97.864 18.752 98.696 19.136C99.544 19.504 100.216 20 100.712 20.624V14.24H103.472V32H100.712V30.008C100.264 30.648 99.64 31.176 98.84 31.592C98.056 32.008 97.152 32.216 96.128 32.216C94.976 32.216 93.92 31.928 92.96 31.352C92.016 30.76 91.264 29.944 90.704 28.904C90.16 27.848 89.888 26.656 89.888 25.328ZM100.712 25.376C100.712 24.464 100.52 23.672 100.136 23C99.768 22.328 99.28 21.816 98.672 21.464C98.064 21.112 97.408 20.936 96.704 20.936C96 20.936 95.344 21.112 94.736 21.464C94.128 21.8 93.632 22.304 93.248 22.976C92.88 23.632 92.696 24.416 92.696 25.328C92.696 26.24 92.88 27.04 93.248 27.728C93.632 28.416 94.128 28.944 94.736 29.312C95.36 29.664 96.016 29.84 96.704 29.84C97.408 29.84 98.064 29.664 98.672 29.312C99.28 28.96 99.768 28.448 100.136 27.776C100.52 27.088 100.712 26.288 100.712 25.376ZM127.004 32H124.268L116.036 19.544V32H113.3V15.296H116.036L124.268 27.728V15.296H127.004V32ZM142.717 25.064C142.717 25.56 142.685 26.008 142.621 26.408H132.517C132.597 27.464 132.989 28.312 133.693 28.952C134.397 29.592 135.261 29.912 136.285 29.912C137.757 29.912 138.797 29.296 139.405 28.064H142.357C141.957 29.28 141.229 30.28 140.173 31.064C139.133 31.832 137.837 32.216 136.285 32.216C135.021 32.216 133.885 31.936 132.877 31.376C131.885 30.8 131.101 30 130.525 28.976C129.965 27.936 129.685 26.736 129.685 25.376C129.685 24.016 129.957 22.824 130.501 21.8C131.061 20.76 131.837 19.96 132.829 19.4C133.837 18.84 134.989 18.56 136.285 18.56C137.533 18.56 138.645 18.832 139.621 19.376C140.597 19.92 141.357 20.688 141.901 21.68C142.445 22.656 142.717 23.784 142.717 25.064ZM139.861 24.2C139.845 23.192 139.485 22.384 138.781 21.776C138.077 21.168 137.205 20.864 136.165 20.864C135.221 20.864 134.413 21.168 133.741 21.776C133.069 22.368 132.669 23.176 132.541 24.2H139.861ZM163.169 18.776L159.065 32H156.185L153.521 22.232L150.857 32H147.977L143.849 18.776H146.633L149.393 29.408L152.201 18.776H155.057L157.745 29.36L160.481 18.776H163.169ZM180.376 23.432C181.272 23.592 182.032 24.064 182.656 24.848C183.28 25.632 183.592 26.52 183.592 27.512C183.592 28.36 183.368 29.128 182.92 29.816C182.488 30.488 181.856 31.024 181.024 31.424C180.192 31.808 179.224 32 178.12 32H171.448V15.32H177.808C178.944 15.32 179.92 15.512 180.736 15.896C181.552 16.28 182.168 16.8 182.584 17.456C183 18.096 183.208 18.816 183.208 19.616C183.208 20.576 182.952 21.376 182.44 22.016C181.928 22.656 181.24 23.128 180.376 23.432ZM174.184 22.328H177.568C178.464 22.328 179.16 22.128 179.656 21.728C180.168 21.312 180.424 20.72 180.424 19.952C180.424 19.2 180.168 18.616 179.656 18.2C179.16 17.768 178.464 17.552 177.568 17.552H174.184V22.328ZM177.88 29.768C178.808 29.768 179.536 29.544 180.064 29.096C180.592 28.648 180.856 28.024 180.856 27.224C180.856 26.408 180.576 25.76 180.016 25.28C179.456 24.8 178.712 24.56 177.784 24.56H174.184V29.768H177.88ZM185.654 25.328C185.654 24 185.926 22.824 186.47 21.8C187.03 20.776 187.782 19.984 188.726 19.424C189.686 18.848 190.742 18.56 191.894 18.56C192.934 18.56 193.838 18.768 194.606 19.184C195.39 19.584 196.014 20.088 196.478 20.696V18.776H199.238V32H196.478V30.032C196.014 30.656 195.382 31.176 194.582 31.592C193.782 32.008 192.87 32.216 191.846 32.216C190.71 32.216 189.67 31.928 188.726 31.352C187.782 30.76 187.03 29.944 186.47 28.904C185.926 27.848 185.654 26.656 185.654 25.328ZM196.478 25.376C196.478 24.464 196.286 23.672 195.902 23C195.534 22.328 195.046 21.816 194.438 21.464C193.83 21.112 193.174 20.936 192.47 20.936C191.766 20.936 191.11 21.112 190.502 21.464C189.894 21.8 189.398 22.304 189.014 22.976C188.646 23.632 188.462 24.416 188.462 25.328C188.462 26.24 188.646 27.04 189.014 27.728C189.398 28.416 189.894 28.944 190.502 29.312C191.126 29.664 191.782 29.84 192.47 29.84C193.174 29.84 193.83 29.664 194.438 29.312C195.046 28.96 195.534 28.448 195.902 27.776C196.286 27.088 196.478 26.288 196.478 25.376ZM206.023 21.008V28.328C206.023 28.824 206.135 29.184 206.359 29.408C206.599 29.616 206.999 29.72 207.559 29.72H209.239V32H207.079C205.847 32 204.903 31.712 204.247 31.136C203.591 30.56 203.263 29.624 203.263 28.328V21.008H201.703V18.776H203.263V15.488H206.023V18.776H209.239V21.008H206.023ZM210.849 25.376C210.849 24.016 211.121 22.824 211.665 21.8C212.225 20.76 212.993 19.96 213.969 19.4C214.945 18.84 216.065 18.56 217.329 18.56C218.929 18.56 220.249 18.944 221.289 19.712C222.345 20.464 223.057 21.544 223.425 22.952H220.473C220.233 22.296 219.849 21.784 219.321 21.416C218.793 21.048 218.129 20.864 217.329 20.864C216.209 20.864 215.313 21.264 214.641 22.064C213.985 22.848 213.657 23.952 213.657 25.376C213.657 26.8 213.985 27.912 214.641 28.712C215.313 29.512 216.209 29.912 217.329 29.912C218.913 29.912 219.961 29.216 220.473 27.824H223.425C223.041 29.168 222.321 30.24 221.265 31.04C220.209 31.824 218.897 32.216 217.329 32.216C216.065 32.216 214.945 31.936 213.969 31.376C212.993 30.8 212.225 30 211.665 28.976C211.121 27.936 210.849 26.736 210.849 25.376ZM232.992 18.56C234 18.56 234.896 18.776 235.68 19.208C236.48 19.64 237.104 20.28 237.552 21.128C238.016 21.976 238.248 23 238.248 24.2V32H235.536V24.608C235.536 23.424 235.24 22.52 234.648 21.896C234.056 21.256 233.248 20.936 232.224 20.936C231.2 20.936 230.384 21.256 229.776 21.896C229.184 22.52 228.888 23.424 228.888 24.608V32H226.152V14.24H228.888V20.312C229.352 19.752 229.936 19.32 230.64 19.016C231.36 18.712 232.144 18.56 232.992 18.56Z" fill="white"/>
<rect width="27" height="27" transform="translate(13 10)" fill="#0075FF"/>
<path d="M27.625 16.75C27.625 16.4516 27.5065 16.1655 27.2955 15.9545C27.0845 15.7435 26.7984 15.625 26.5 15.625C26.2016 15.625 25.9155 15.7435 25.7045 15.9545C25.4935 16.1655 25.375 16.4516 25.375 16.75V22.375H19.75C19.4516 22.375 19.1655 22.4935 18.9545 22.7045C18.7435 22.9155 18.625 23.2016 18.625 23.5C18.625 23.7984 18.7435 24.0845 18.9545 24.2955C19.1655 24.5065 19.4516 24.625 19.75 24.625H25.375V30.25C25.375 30.5484 25.4935 30.8345 25.7045 31.0455C25.9155 31.2565 26.2016 31.375 26.5 31.375C26.7984 31.375 27.0845 31.2565 27.2955 31.0455C27.5065 30.8345 27.625 30.5484 27.625 30.25V24.625H33.25C33.5484 24.625 33.8345 24.5065 34.0455 24.2955C34.2565 24.0845 34.375 23.7984 34.375 23.5C34.375 23.2016 34.2565 22.9155 34.0455 22.7045C33.8345 22.4935 33.5484 22.375 33.25 22.375H27.625V16.75Z" fill="white"/>
</svg>
