<svg width="194" height="49" viewBox="0 0 194 49" fill="none" xmlns="http://www.w3.org/2000/svg">
<path d="M0 10C0 4.47715 4.47715 0 10 0H184C189.523 0 194 4.47715 194 10V39C194 44.5228 189.523 49 184 49H0V10Z" fill="#6B819B"/>
<path d="M37.32 33H34.52L28.18 23.42V33H25.38V19.02H28.18L34.52 28.62V19.02H37.32V33ZM50.387 27.22C50.387 27.62 50.3604 27.98 50.307 28.3H42.207C42.2737 29.1 42.5537 29.7267 43.047 30.18C43.5404 30.6333 44.147 30.86 44.867 30.86C45.907 30.86 46.647 30.4133 47.087 29.52H50.107C49.787 30.5867 49.1737 31.4667 48.267 32.16C47.3604 32.84 46.247 33.18 44.927 33.18C43.8604 33.18 42.9004 32.9467 42.047 32.48C41.207 32 40.547 31.3267 40.067 30.46C39.6004 29.5933 39.367 28.5933 39.367 27.46C39.367 26.3133 39.6004 25.3067 40.067 24.44C40.5337 23.5733 41.187 22.9067 42.027 22.44C42.867 21.9733 43.8337 21.74 44.927 21.74C45.9804 21.74 46.9204 21.9667 47.747 22.42C48.587 22.8733 49.2337 23.52 49.687 24.36C50.1537 25.1867 50.387 26.14 50.387 27.22ZM47.487 26.42C47.4737 25.7 47.2137 25.1267 46.707 24.7C46.2004 24.26 45.5804 24.04 44.847 24.04C44.1537 24.04 43.567 24.2533 43.087 24.68C42.6204 25.0933 42.3337 25.6733 42.227 26.42H47.487ZM67.7908 21.92L64.5508 33H61.5308L59.5108 25.26L57.4908 33H54.4508L51.1908 21.92H54.0308L55.9908 30.36L58.1108 21.92H61.0708L63.1508 30.34L65.1108 21.92H67.7908ZM78.8914 33.14C77.9181 33.14 77.0381 32.9733 76.2514 32.64C75.4781 32.3067 74.8647 31.8267 74.4114 31.2C73.9581 30.5733 73.7247 29.8333 73.7114 28.98H76.7114C76.7514 29.5533 76.9514 30.0067 77.3114 30.34C77.6847 30.6733 78.1914 30.84 78.8314 30.84C79.4847 30.84 79.9981 30.6867 80.3714 30.38C80.7447 30.06 80.9314 29.6467 80.9314 29.14C80.9314 28.7267 80.8047 28.3867 80.5514 28.12C80.2981 27.8533 79.9781 27.6467 79.5914 27.5C79.2181 27.34 78.6981 27.1667 78.0314 26.98C77.1247 26.7133 76.3847 26.4533 75.8114 26.2C75.2514 25.9333 74.7647 25.54 74.3514 25.02C73.9514 24.4867 73.7514 23.78 73.7514 22.9C73.7514 22.0733 73.9581 21.3533 74.3714 20.74C74.7847 20.1267 75.3647 19.66 76.1114 19.34C76.8581 19.0067 77.7114 18.84 78.6714 18.84C80.1114 18.84 81.2781 19.1933 82.1714 19.9C83.0781 20.5933 83.5781 21.5667 83.6714 22.82H80.5914C80.5647 22.34 80.3581 21.9467 79.9714 21.64C79.5981 21.32 79.0981 21.16 78.4714 21.16C77.9247 21.16 77.4847 21.3 77.1514 21.58C76.8314 21.86 76.6714 22.2667 76.6714 22.8C76.6714 23.1733 76.7914 23.4867 77.0314 23.74C77.2847 23.98 77.5914 24.18 77.9514 24.34C78.3247 24.4867 78.8447 24.66 79.5114 24.86C80.4181 25.1267 81.1581 25.3933 81.7314 25.66C82.3047 25.9267 82.7981 26.3267 83.2114 26.86C83.6247 27.3933 83.8314 28.0933 83.8314 28.96C83.8314 29.7067 83.6381 30.4 83.2514 31.04C82.8647 31.68 82.2981 32.1933 81.5514 32.58C80.8047 32.9533 79.9181 33.14 78.8914 33.14ZM85.5389 27.42C85.5389 26.3 85.7589 25.3067 86.1989 24.44C86.6522 23.5733 87.2589 22.9067 88.0189 22.44C88.7922 21.9733 89.6522 21.74 90.5989 21.74C91.4256 21.74 92.1456 21.9067 92.7589 22.24C93.3856 22.5733 93.8856 22.9933 94.2589 23.5V21.92H97.0789V33H94.2589V31.38C93.8989 31.9 93.3989 32.3333 92.7589 32.68C92.1322 33.0133 91.4056 33.18 90.5789 33.18C89.6456 33.18 88.7922 32.94 88.0189 32.46C87.2589 31.98 86.6522 31.3067 86.1989 30.44C85.7589 29.56 85.5389 28.5533 85.5389 27.42ZM94.2589 27.46C94.2589 26.78 94.1256 26.2 93.8589 25.72C93.5922 25.2267 93.2322 24.8533 92.7789 24.6C92.3256 24.3333 91.8389 24.2 91.3189 24.2C90.7989 24.2 90.3189 24.3267 89.8789 24.58C89.4389 24.8333 89.0789 25.2067 88.7989 25.7C88.5322 26.18 88.3989 26.7533 88.3989 27.42C88.3989 28.0867 88.5322 28.6733 88.7989 29.18C89.0789 29.6733 89.4389 30.0533 89.8789 30.32C90.3322 30.5867 90.8122 30.72 91.3189 30.72C91.8389 30.72 92.3256 30.5933 92.7789 30.34C93.2322 30.0733 93.5922 29.7 93.8589 29.22C94.1256 28.7267 94.2589 28.14 94.2589 27.46ZM113.574 21.76C114.934 21.76 116.027 22.18 116.854 23.02C117.694 23.8467 118.114 25.0067 118.114 26.5V33H115.314V26.88C115.314 26.0133 115.094 25.3533 114.654 24.9C114.214 24.4333 113.614 24.2 112.854 24.2C112.094 24.2 111.487 24.4333 111.034 24.9C110.594 25.3533 110.374 26.0133 110.374 26.88V33H107.574V26.88C107.574 26.0133 107.354 25.3533 106.914 24.9C106.474 24.4333 105.874 24.2 105.114 24.2C104.34 24.2 103.727 24.4333 103.274 24.9C102.834 25.3533 102.614 26.0133 102.614 26.88V33H99.8136V21.92H102.614V23.26C102.974 22.7933 103.434 22.4267 103.994 22.16C104.567 21.8933 105.194 21.76 105.874 21.76C106.74 21.76 107.514 21.9467 108.194 22.32C108.874 22.68 109.4 23.2 109.774 23.88C110.134 23.24 110.654 22.7267 111.334 22.34C112.027 21.9533 112.774 21.76 113.574 21.76ZM123.571 23.52C123.931 23.0133 124.424 22.5933 125.051 22.26C125.691 21.9133 126.417 21.74 127.231 21.74C128.177 21.74 129.031 21.9733 129.791 22.44C130.564 22.9067 131.171 23.5733 131.611 24.44C132.064 25.2933 132.291 26.2867 132.291 27.42C132.291 28.5533 132.064 29.56 131.611 30.44C131.171 31.3067 130.564 31.98 129.791 32.46C129.031 32.94 128.177 33.18 127.231 33.18C126.417 33.18 125.697 33.0133 125.071 32.68C124.457 32.3467 123.957 31.9267 123.571 31.42V38.28H120.771V21.92H123.571V23.52ZM129.431 27.42C129.431 26.7533 129.291 26.18 129.011 25.7C128.744 25.2067 128.384 24.8333 127.931 24.58C127.491 24.3267 127.011 24.2 126.491 24.2C125.984 24.2 125.504 24.3333 125.051 24.6C124.611 24.8533 124.251 25.2267 123.971 25.72C123.704 26.2133 123.571 26.7933 123.571 27.46C123.571 28.1267 123.704 28.7067 123.971 29.2C124.251 29.6933 124.611 30.0733 125.051 30.34C125.504 30.5933 125.984 30.72 126.491 30.72C127.011 30.72 127.491 30.5867 127.931 30.32C128.384 30.0533 128.744 29.6733 129.011 29.18C129.291 28.6867 129.431 28.1 129.431 27.42ZM137.125 18.2V33H134.325V18.2H137.125ZM141.312 20.6C140.818 20.6 140.405 20.4467 140.072 20.14C139.752 19.82 139.592 19.4267 139.592 18.96C139.592 18.4933 139.752 18.1067 140.072 17.8C140.405 17.48 140.818 17.32 141.312 17.32C141.805 17.32 142.212 17.48 142.532 17.8C142.865 18.1067 143.032 18.4933 143.032 18.96C143.032 19.4267 142.865 19.82 142.532 20.14C142.212 20.4467 141.805 20.6 141.312 20.6ZM142.692 21.92V33H139.892V21.92H142.692ZM151.598 21.76C152.918 21.76 153.985 22.18 154.798 23.02C155.611 23.8467 156.018 25.0067 156.018 26.5V33H153.218V26.88C153.218 26 152.998 25.3267 152.558 24.86C152.118 24.38 151.518 24.14 150.758 24.14C149.985 24.14 149.371 24.38 148.918 24.86C148.478 25.3267 148.258 26 148.258 26.88V33H145.458V21.92H148.258V23.3C148.631 22.82 149.105 22.4467 149.678 22.18C150.265 21.9 150.905 21.76 151.598 21.76ZM163.021 21.74C163.847 21.74 164.574 21.9067 165.201 22.24C165.827 22.56 166.321 22.98 166.681 23.5V21.92H169.501V33.08C169.501 34.1067 169.294 35.02 168.881 35.82C168.467 36.6333 167.847 37.2733 167.021 37.74C166.194 38.22 165.194 38.46 164.021 38.46C162.447 38.46 161.154 38.0933 160.141 37.36C159.141 36.6267 158.574 35.6267 158.441 34.36H161.221C161.367 34.8667 161.681 35.2667 162.161 35.56C162.654 35.8667 163.247 36.02 163.941 36.02C164.754 36.02 165.414 35.7733 165.921 35.28C166.427 34.8 166.681 34.0667 166.681 33.08V31.36C166.321 31.88 165.821 32.3133 165.181 32.66C164.554 33.0067 163.834 33.18 163.021 33.18C162.087 33.18 161.234 32.94 160.461 32.46C159.687 31.98 159.074 31.3067 158.621 30.44C158.181 29.56 157.961 28.5533 157.961 27.42C157.961 26.3 158.181 25.3067 158.621 24.44C159.074 23.5733 159.681 22.9067 160.441 22.44C161.214 21.9733 162.074 21.74 163.021 21.74ZM166.681 27.46C166.681 26.78 166.547 26.2 166.281 25.72C166.014 25.2267 165.654 24.8533 165.201 24.6C164.747 24.3333 164.261 24.2 163.741 24.2C163.221 24.2 162.741 24.3267 162.301 24.58C161.861 24.8333 161.501 25.2067 161.221 25.7C160.954 26.18 160.821 26.7533 160.821 27.42C160.821 28.0867 160.954 28.6733 161.221 29.18C161.501 29.6733 161.861 30.0533 162.301 30.32C162.754 30.5867 163.234 30.72 163.741 30.72C164.261 30.72 164.747 30.5933 165.201 30.34C165.654 30.0733 166.014 29.7 166.281 29.22C166.547 28.7267 166.681 28.14 166.681 27.46Z" fill="white"/>
</svg>
