<svg width="246" height="34" viewBox="0 0 246 34" fill="none" xmlns="http://www.w3.org/2000/svg">
<rect y="7" width="27" height="27" rx="6" fill="#1A1F37"/>
<path d="M4.5 9.25H2.25V30.625C2.25 31.2437 2.75625 31.75 3.375 31.75H24.75V29.5H4.5V9.25Z" fill="#0075FF"/>
<path d="M17.325 21.4C17.775 21.7375 18.405 21.6925 18.7987 21.2987L24.4237 15.6737L22.8375 14.0875L17.8987 19.0262L14.175 16.2362C13.725 15.8987 13.095 15.9437 12.7012 16.3375L5.95125 23.0875L7.5375 24.6737L13.6012 18.61L17.325 21.4Z" fill="#0075FF"/>
<path d="M54.856 22.592H47.872L46.672 26H43.816L49.792 9.296H52.96L58.936 26H56.056L54.856 22.592ZM54.088 20.36L51.376 12.608L48.64 20.36H54.088ZM68.2064 12.56C69.2464 12.56 70.1744 12.776 70.9904 13.208C71.8224 13.64 72.4704 14.28 72.9344 15.128C73.3984 15.976 73.6304 17 73.6304 18.2V26H70.9184V18.608C70.9184 17.424 70.6224 16.52 70.0304 15.896C69.4384 15.256 68.6304 14.936 67.6064 14.936C66.5824 14.936 65.7664 15.256 65.1584 15.896C64.5664 16.52 64.2704 17.424 64.2704 18.608V26H61.5344V12.776H64.2704V14.288C64.7184 13.744 65.2864 13.32 65.9744 13.016C66.6784 12.712 67.4224 12.56 68.2064 12.56ZM76.2083 19.328C76.2083 18 76.4803 16.824 77.0243 15.8C77.5843 14.776 78.3363 13.984 79.2803 13.424C80.2403 12.848 81.2963 12.56 82.4483 12.56C83.4883 12.56 84.3923 12.768 85.1603 13.184C85.9443 13.584 86.5683 14.088 87.0323 14.696V12.776H89.7923V26H87.0323V24.032C86.5683 24.656 85.9363 25.176 85.1363 25.592C84.3363 26.008 83.4243 26.216 82.4003 26.216C81.2643 26.216 80.2243 25.928 79.2803 25.352C78.3363 24.76 77.5843 23.944 77.0243 22.904C76.4803 21.848 76.2083 20.656 76.2083 19.328ZM87.0323 19.376C87.0323 18.464 86.8403 17.672 86.4563 17C86.0883 16.328 85.6003 15.816 84.9923 15.464C84.3843 15.112 83.7283 14.936 83.0243 14.936C82.3203 14.936 81.6643 15.112 81.0563 15.464C80.4483 15.8 79.9523 16.304 79.5683 16.976C79.2003 17.632 79.0163 18.416 79.0163 19.328C79.0163 20.24 79.2003 21.04 79.5683 21.728C79.9523 22.416 80.4483 22.944 81.0563 23.312C81.6803 23.664 82.3363 23.84 83.0243 23.84C83.7283 23.84 84.3843 23.664 84.9923 23.312C85.6003 22.96 86.0883 22.448 86.4563 21.776C86.8403 21.088 87.0323 20.288 87.0323 19.376ZM96.1219 8.24V26H93.3859V8.24H96.1219ZM111.618 12.776L103.506 32.216H100.674L103.362 25.784L98.1541 12.776H101.202L104.922 22.856L108.786 12.776H111.618ZM116.875 15.008V22.328C116.875 22.824 116.987 23.184 117.211 23.408C117.451 23.616 117.851 23.72 118.411 23.72H120.091V26H117.931C116.699 26 115.755 25.712 115.099 25.136C114.443 24.56 114.115 23.624 114.115 22.328V15.008H112.555V12.776H114.115V9.488H116.875V12.776H120.091V15.008H116.875ZM124.005 11.024C123.509 11.024 123.093 10.856 122.757 10.52C122.421 10.184 122.253 9.768 122.253 9.272C122.253 8.776 122.421 8.36 122.757 8.024C123.093 7.688 123.509 7.52 124.005 7.52C124.485 7.52 124.893 7.688 125.229 8.024C125.565 8.36 125.733 8.776 125.733 9.272C125.733 9.768 125.565 10.184 125.229 10.52C124.893 10.856 124.485 11.024 124.005 11.024ZM125.349 12.776V26H122.613V12.776H125.349ZM128.029 19.376C128.029 18.016 128.301 16.824 128.845 15.8C129.405 14.76 130.173 13.96 131.149 13.4C132.125 12.84 133.245 12.56 134.509 12.56C136.109 12.56 137.429 12.944 138.469 13.712C139.525 14.464 140.237 15.544 140.605 16.952H137.653C137.413 16.296 137.029 15.784 136.501 15.416C135.973 15.048 135.309 14.864 134.509 14.864C133.389 14.864 132.493 15.264 131.821 16.064C131.165 16.848 130.837 17.952 130.837 19.376C130.837 20.8 131.165 21.912 131.821 22.712C132.493 23.512 133.389 23.912 134.509 23.912C136.093 23.912 137.141 23.216 137.653 21.824H140.605C140.221 23.168 139.501 24.24 138.445 25.04C137.389 25.824 136.077 26.216 134.509 26.216C133.245 26.216 132.125 25.936 131.149 25.376C130.173 24.8 129.405 24 128.845 22.976C128.301 21.936 128.029 20.736 128.029 19.376ZM148.131 26.216C147.091 26.216 146.155 26.032 145.323 25.664C144.507 25.28 143.859 24.768 143.379 24.128C142.899 23.472 142.643 22.744 142.611 21.944H145.443C145.491 22.504 145.755 22.976 146.235 23.36C146.731 23.728 147.347 23.912 148.083 23.912C148.851 23.912 149.443 23.768 149.859 23.48C150.291 23.176 150.507 22.792 150.507 22.328C150.507 21.832 150.267 21.464 149.787 21.224C149.323 20.984 148.579 20.72 147.555 20.432C146.563 20.16 145.755 19.896 145.131 19.64C144.507 19.384 143.963 18.992 143.499 18.464C143.051 17.936 142.827 17.24 142.827 16.376C142.827 15.672 143.035 15.032 143.451 14.456C143.867 13.864 144.459 13.4 145.227 13.064C146.011 12.728 146.907 12.56 147.915 12.56C149.419 12.56 150.627 12.944 151.539 13.712C152.467 14.464 152.963 15.496 153.027 16.808H150.291C150.243 16.216 150.003 15.744 149.571 15.392C149.139 15.04 148.555 14.864 147.819 14.864C147.099 14.864 146.547 15 146.163 15.272C145.779 15.544 145.587 15.904 145.587 16.352C145.587 16.704 145.715 17 145.971 17.24C146.227 17.48 146.539 17.672 146.907 17.816C147.275 17.944 147.819 18.112 148.539 18.32C149.499 18.576 150.283 18.84 150.891 19.112C151.515 19.368 152.051 19.752 152.499 20.264C152.947 20.776 153.179 21.456 153.195 22.304C153.195 23.056 152.987 23.728 152.571 24.32C152.155 24.912 151.563 25.376 150.795 25.712C150.043 26.048 149.155 26.216 148.131 26.216Z" fill="white"/>
</svg>
