<svg width="301" height="47" viewBox="0 0 301 47" fill="none" xmlns="http://www.w3.org/2000/svg">
<rect width="301" height="47" rx="9" fill="#414760"/>
<path d="M66.728 22.432C67.624 22.592 68.384 23.064 69.008 23.848C69.632 24.632 69.944 25.52 69.944 26.512C69.944 27.36 69.72 28.128 69.272 28.816C68.84 29.488 68.208 30.024 67.376 30.424C66.544 30.808 65.576 31 64.472 31H57.8V14.32H64.16C65.296 14.32 66.272 14.512 67.088 14.896C67.904 15.28 68.52 15.8 68.936 16.456C69.352 17.096 69.56 17.816 69.56 18.616C69.56 19.576 69.304 20.376 68.792 21.016C68.28 21.656 67.592 22.128 66.728 22.432ZM60.536 21.328H63.92C64.816 21.328 65.512 21.128 66.008 20.728C66.52 20.312 66.776 19.72 66.776 18.952C66.776 18.2 66.52 17.616 66.008 17.2C65.512 16.768 64.816 16.552 63.92 16.552H60.536V21.328ZM64.232 28.768C65.16 28.768 65.888 28.544 66.416 28.096C66.944 27.648 67.208 27.024 67.208 26.224C67.208 25.408 66.928 24.76 66.368 24.28C65.808 23.8 65.064 23.56 64.136 23.56H60.536V28.768H64.232ZM74.3092 16.024C73.8132 16.024 73.3972 15.856 73.0612 15.52C72.7252 15.184 72.5572 14.768 72.5572 14.272C72.5572 13.776 72.7252 13.36 73.0612 13.024C73.3972 12.688 73.8132 12.52 74.3092 12.52C74.7892 12.52 75.1972 12.688 75.5332 13.024C75.8692 13.36 76.0372 13.776 76.0372 14.272C76.0372 14.768 75.8692 15.184 75.5332 15.52C75.1972 15.856 74.7892 16.024 74.3092 16.024ZM75.6532 17.776V31H72.9172V17.776H75.6532ZM89.3973 21.16V23.464H79.5333V21.16H89.3973ZM115.004 14.32L110.06 31H106.964L103.46 18.376L99.7404 31L96.6684 31.024L91.9404 14.32H94.8444L98.3004 27.904L102.044 14.32H105.116L108.596 27.832L112.076 14.32H115.004ZM129.381 24.064C129.381 24.56 129.349 25.008 129.285 25.408H119.181C119.261 26.464 119.653 27.312 120.357 27.952C121.061 28.592 121.925 28.912 122.949 28.912C124.421 28.912 125.461 28.296 126.069 27.064H129.021C128.621 28.28 127.893 29.28 126.837 30.064C125.797 30.832 124.501 31.216 122.949 31.216C121.685 31.216 120.549 30.936 119.541 30.376C118.549 29.8 117.765 29 117.189 27.976C116.629 26.936 116.349 25.736 116.349 24.376C116.349 23.016 116.621 21.824 117.165 20.8C117.725 19.76 118.501 18.96 119.493 18.4C120.501 17.84 121.653 17.56 122.949 17.56C124.197 17.56 125.309 17.832 126.285 18.376C127.261 18.92 128.021 19.688 128.565 20.68C129.109 21.656 129.381 22.784 129.381 24.064ZM126.525 23.2C126.509 22.192 126.149 21.384 125.445 20.776C124.741 20.168 123.869 19.864 122.829 19.864C121.885 19.864 121.077 20.168 120.405 20.776C119.733 21.368 119.333 22.176 119.205 23.2H126.525ZM144.193 24.064C144.193 24.56 144.161 25.008 144.097 25.408H133.993C134.073 26.464 134.465 27.312 135.169 27.952C135.873 28.592 136.737 28.912 137.761 28.912C139.233 28.912 140.273 28.296 140.881 27.064H143.833C143.433 28.28 142.705 29.28 141.649 30.064C140.609 30.832 139.313 31.216 137.761 31.216C136.497 31.216 135.361 30.936 134.353 30.376C133.361 29.8 132.577 29 132.001 27.976C131.441 26.936 131.161 25.736 131.161 24.376C131.161 23.016 131.433 21.824 131.977 20.8C132.537 19.76 133.313 18.96 134.305 18.4C135.313 17.84 136.465 17.56 137.761 17.56C139.009 17.56 140.121 17.832 141.097 18.376C142.073 18.92 142.833 19.688 143.377 20.68C143.921 21.656 144.193 22.784 144.193 24.064ZM141.337 23.2C141.321 22.192 140.961 21.384 140.257 20.776C139.553 20.168 138.681 19.864 137.641 19.864C136.697 19.864 135.889 20.168 135.217 20.776C134.545 21.368 134.145 22.176 134.017 23.2H141.337ZM152.118 24.4L158.214 31H154.518L149.622 25.312V31H146.886V13.24H149.622V23.56L154.422 17.776H158.214L152.118 24.4ZM162.911 13.24V31H160.175V13.24H162.911ZM178.407 17.776L170.295 37.216H167.463L170.151 30.784L164.943 17.776H167.991L171.711 27.856L175.575 17.776H178.407ZM192.202 31.168C191.082 31.168 190.074 30.976 189.178 30.592C188.282 30.192 187.578 29.632 187.066 28.912C186.554 28.192 186.298 27.352 186.298 26.392H189.226C189.29 27.112 189.57 27.704 190.066 28.168C190.578 28.632 191.29 28.864 192.202 28.864C193.146 28.864 193.882 28.64 194.41 28.192C194.938 27.728 195.202 27.136 195.202 26.416C195.202 25.856 195.034 25.4 194.698 25.048C194.378 24.696 193.97 24.424 193.474 24.232C192.994 24.04 192.322 23.832 191.458 23.608C190.37 23.32 189.482 23.032 188.794 22.744C188.122 22.44 187.546 21.976 187.066 21.352C186.586 20.728 186.346 19.896 186.346 18.856C186.346 17.896 186.586 17.056 187.066 16.336C187.546 15.616 188.218 15.064 189.082 14.68C189.946 14.296 190.946 14.104 192.082 14.104C193.698 14.104 195.018 14.512 196.042 15.328C197.082 16.128 197.658 17.232 197.77 18.64H194.746C194.698 18.032 194.41 17.512 193.882 17.08C193.354 16.648 192.658 16.432 191.794 16.432C191.01 16.432 190.37 16.632 189.874 17.032C189.378 17.432 189.13 18.008 189.13 18.76C189.13 19.272 189.282 19.696 189.586 20.032C189.906 20.352 190.306 20.608 190.786 20.8C191.266 20.992 191.922 21.2 192.754 21.424C193.858 21.728 194.754 22.032 195.442 22.336C196.146 22.64 196.738 23.112 197.218 23.752C197.714 24.376 197.962 25.216 197.962 26.272C197.962 27.12 197.73 27.92 197.266 28.672C196.818 29.424 196.154 30.032 195.274 30.496C194.41 30.944 193.386 31.168 192.202 31.168ZM200.279 24.328C200.279 23 200.551 21.824 201.095 20.8C201.655 19.776 202.407 18.984 203.351 18.424C204.311 17.848 205.367 17.56 206.519 17.56C207.559 17.56 208.463 17.768 209.231 18.184C210.015 18.584 210.639 19.088 211.103 19.696V17.776H213.863V31H211.103V29.032C210.639 29.656 210.007 30.176 209.207 30.592C208.407 31.008 207.495 31.216 206.471 31.216C205.335 31.216 204.295 30.928 203.351 30.352C202.407 29.76 201.655 28.944 201.095 27.904C200.551 26.848 200.279 25.656 200.279 24.328ZM211.103 24.376C211.103 23.464 210.911 22.672 210.527 22C210.159 21.328 209.671 20.816 209.063 20.464C208.455 20.112 207.799 19.936 207.095 19.936C206.391 19.936 205.735 20.112 205.127 20.464C204.519 20.8 204.023 21.304 203.639 21.976C203.271 22.632 203.087 23.416 203.087 24.328C203.087 25.24 203.271 26.04 203.639 26.728C204.023 27.416 204.519 27.944 205.127 28.312C205.751 28.664 206.407 28.84 207.095 28.84C207.799 28.84 208.455 28.664 209.063 28.312C209.671 27.96 210.159 27.448 210.527 26.776C210.911 26.088 211.103 25.288 211.103 24.376ZM233.464 17.56C234.504 17.56 235.432 17.776 236.248 18.208C237.08 18.64 237.728 19.28 238.192 20.128C238.672 20.976 238.912 22 238.912 23.2V31H236.2V23.608C236.2 22.424 235.904 21.52 235.312 20.896C234.72 20.256 233.912 19.936 232.888 19.936C231.864 19.936 231.048 20.256 230.44 20.896C229.848 21.52 229.552 22.424 229.552 23.608V31H226.84V23.608C226.84 22.424 226.544 21.52 225.952 20.896C225.36 20.256 224.552 19.936 223.528 19.936C222.504 19.936 221.688 20.256 221.08 20.896C220.488 21.52 220.192 22.424 220.192 23.608V31H217.456V17.776H220.192V19.288C220.64 18.744 221.208 18.32 221.896 18.016C222.584 17.712 223.32 17.56 224.104 17.56C225.16 17.56 226.104 17.784 226.936 18.232C227.768 18.68 228.408 19.328 228.856 20.176C229.256 19.376 229.88 18.744 230.728 18.28C231.576 17.8 232.488 17.56 233.464 17.56ZM245.13 19.72C245.594 19.112 246.226 18.6 247.026 18.184C247.826 17.768 248.73 17.56 249.738 17.56C250.89 17.56 251.938 17.848 252.882 18.424C253.842 18.984 254.594 19.776 255.138 20.8C255.682 21.824 255.954 23 255.954 24.328C255.954 25.656 255.682 26.848 255.138 27.904C254.594 28.944 253.842 29.76 252.882 30.352C251.938 30.928 250.89 31.216 249.738 31.216C248.73 31.216 247.834 31.016 247.05 30.616C246.266 30.2 245.626 29.688 245.13 29.08V37.288H242.394V17.776H245.13V19.72ZM253.17 24.328C253.17 23.416 252.978 22.632 252.594 21.976C252.226 21.304 251.73 20.8 251.106 20.464C250.498 20.112 249.842 19.936 249.138 19.936C248.45 19.936 247.794 20.112 247.17 20.464C246.562 20.816 246.066 21.328 245.682 22C245.314 22.672 245.13 23.464 245.13 24.376C245.13 25.288 245.314 26.088 245.682 26.776C246.066 27.448 246.562 27.96 247.17 28.312C247.794 28.664 248.45 28.84 249.138 28.84C249.842 28.84 250.498 28.664 251.106 28.312C251.73 27.944 252.226 27.416 252.594 26.728C252.978 26.04 253.17 25.24 253.17 24.328ZM261.395 13.24V31H258.659V13.24H261.395ZM277.108 24.064C277.108 24.56 277.076 25.008 277.012 25.408H266.908C266.988 26.464 267.38 27.312 268.084 27.952C268.788 28.592 269.652 28.912 270.676 28.912C272.148 28.912 273.188 28.296 273.796 27.064H276.747C276.348 28.28 275.62 29.28 274.564 30.064C273.524 30.832 272.228 31.216 270.676 31.216C269.412 31.216 268.276 30.936 267.268 30.376C266.276 29.8 265.492 29 264.916 27.976C264.356 26.936 264.076 25.736 264.076 24.376C264.076 23.016 264.348 21.824 264.892 20.8C265.452 19.76 266.228 18.96 267.22 18.4C268.228 17.84 269.38 17.56 270.676 17.56C271.924 17.56 273.036 17.832 274.012 18.376C274.988 18.92 275.748 19.688 276.292 20.68C276.836 21.656 277.108 22.784 277.108 24.064ZM274.252 23.2C274.236 22.192 273.876 21.384 273.172 20.776C272.468 20.168 271.596 19.864 270.556 19.864C269.612 19.864 268.804 20.168 268.132 20.776C267.46 21.368 267.06 22.176 266.932 23.2H274.252Z" fill="white"/>
<rect width="27" height="27" transform="translate(13 10)" fill="#0075FF"/>
<path d="M31.0932 11.3553C31.1195 13.0022 31.8578 14.4265 33.1023 16.0012L33.3186 16.2754L31.0035 19.6504H34.1992L34.8637 16.8608L35.2012 16.8238C36.1873 16.7236 37.3633 16.2859 38.3652 15.7744C38.7396 15.5793 39.0824 15.3789 39.3988 15.1785C39.1773 15.1785 39.0086 15.1854 38.7555 15.1785C37.5742 15.1464 36.1873 15.0456 35.2012 14.6375C34.1254 14.1887 32.9547 13.172 32.0002 12.2618C31.6521 11.929 31.3516 11.6269 31.0932 11.3553ZM16.9514 11.4186C15.9289 13.9414 16.9255 17.425 18.2075 19.6504H19.2754C19.2332 19.5238 19.2121 19.392 19.2121 19.2549C19.2121 18.5324 19.808 17.9365 20.5305 17.9365C21.2529 17.9365 21.8488 18.5324 21.8488 19.2549C21.8488 19.392 21.8277 19.5238 21.7855 19.6504H24.9865C24.1428 17.6887 22.7822 15.2893 20.6201 13.4826C20.8891 14.4935 21.2635 15.4738 21.8752 16.4125L21.0736 16.9293C20.1666 15.5266 19.7395 14.0611 19.4441 12.6167C18.6953 12.1352 17.8674 11.726 16.9514 11.4186ZM20.5305 18.8858C20.3195 18.8858 20.1613 19.044 20.1613 19.2549C20.1613 19.4658 20.3195 19.624 20.5305 19.624C20.7414 19.624 20.8996 19.4658 20.8996 19.2549C20.8996 19.044 20.7414 18.8858 20.5305 18.8858ZM17.6934 20.5996V22.1817H28.0557C28.1453 21.8758 28.2297 21.5647 28.3193 21.2535L29.2369 21.5067C29.1736 21.7334 29.1104 21.9549 29.0471 22.1817H35.3066V20.5996H17.6934ZM18.632 23.1309L20.2932 31.9639C22.8139 30.9303 24.4381 29.4959 25.6035 27.8137C26.5791 26.4057 27.2277 24.8078 27.7604 23.1309H18.632ZM28.7623 23.1309C28.198 24.9555 27.4967 26.7432 26.3787 28.3568C25.092 30.2078 23.241 31.8109 20.4672 32.9131L20.9893 35.6817H32.0107L34.368 23.1309H28.7623Z" fill="white"/>
</svg>
