<svg width="250" height="42" viewBox="0 0 250 42" fill="none" xmlns="http://www.w3.org/2000/svg">
<rect width="250" height="42" rx="19" fill="#00B894" fill-opacity="0.85"/>
<rect width="250" height="42" rx="19" fill="#00B894" fill-opacity="0.85"/>
<path d="M66.2756 20.6C66.2756 18.952 66.6436 17.48 67.3796 16.184C68.1316 14.872 69.1476 13.856 70.4276 13.136C71.7236 12.4 73.1716 12.032 74.7716 12.032C76.6436 12.032 78.2836 12.512 79.6916 13.472C81.0996 14.432 82.0836 15.76 82.6436 17.456H78.7796C78.3956 16.656 77.8516 16.056 77.1476 15.656C76.4596 15.256 75.6596 15.056 74.7476 15.056C73.7716 15.056 72.8996 15.288 72.1316 15.752C71.3796 16.2 70.7876 16.84 70.3556 17.672C69.9396 18.504 69.7316 19.48 69.7316 20.6C69.7316 21.704 69.9396 22.68 70.3556 23.528C70.7876 24.36 71.3796 25.008 72.1316 25.472C72.8996 25.92 73.7716 26.144 74.7476 26.144C75.6596 26.144 76.4596 25.944 77.1476 25.544C77.8516 25.128 78.3956 24.52 78.7796 23.72H82.6436C82.0836 25.432 81.0996 26.768 79.6916 27.728C78.2996 28.672 76.6596 29.144 74.7716 29.144C73.1716 29.144 71.7236 28.784 70.4276 28.064C69.1476 27.328 68.1316 26.312 67.3796 25.016C66.6436 23.72 66.2756 22.248 66.2756 20.6ZM84.6495 22.304C84.6495 20.96 84.9135 19.768 85.4415 18.728C85.9855 17.688 86.7135 16.888 87.6255 16.328C88.5535 15.768 89.5855 15.488 90.7215 15.488C91.7135 15.488 92.5775 15.688 93.3135 16.088C94.0655 16.488 94.6655 16.992 95.1135 17.6V15.704H98.4975V29H95.1135V27.056C94.6815 27.68 94.0815 28.2 93.3135 28.616C92.5615 29.016 91.6895 29.216 90.6975 29.216C89.5775 29.216 88.5535 28.928 87.6255 28.352C86.7135 27.776 85.9855 26.968 85.4415 25.928C84.9135 24.872 84.6495 23.664 84.6495 22.304ZM95.1135 22.352C95.1135 21.536 94.9535 20.84 94.6335 20.264C94.3135 19.672 93.8815 19.224 93.3375 18.92C92.7935 18.6 92.2095 18.44 91.5855 18.44C90.9615 18.44 90.3855 18.592 89.8575 18.896C89.3295 19.2 88.8975 19.648 88.5615 20.24C88.2415 20.816 88.0815 21.504 88.0815 22.304C88.0815 23.104 88.2415 23.808 88.5615 24.416C88.8975 25.008 89.3295 25.464 89.8575 25.784C90.4015 26.104 90.9775 26.264 91.5855 26.264C92.2095 26.264 92.7935 26.112 93.3375 25.808C93.8815 25.488 94.3135 25.04 94.6335 24.464C94.9535 23.872 95.1135 23.168 95.1135 22.352ZM105.139 11.24V29H101.779V11.24H105.139ZM107.595 22.352C107.595 20.976 107.875 19.776 108.435 18.752C108.995 17.712 109.771 16.912 110.763 16.352C111.755 15.776 112.891 15.488 114.171 15.488C115.819 15.488 117.179 15.904 118.251 16.736C119.339 17.552 120.067 18.704 120.435 20.192H116.811C116.619 19.616 116.291 19.168 115.827 18.848C115.379 18.512 114.819 18.344 114.147 18.344C113.187 18.344 112.427 18.696 111.867 19.4C111.307 20.088 111.027 21.072 111.027 22.352C111.027 23.616 111.307 24.6 111.867 25.304C112.427 25.992 113.187 26.336 114.147 26.336C115.507 26.336 116.395 25.728 116.811 24.512H120.435C120.067 25.952 119.339 27.096 118.251 27.944C117.163 28.792 115.803 29.216 114.171 29.216C112.891 29.216 111.755 28.936 110.763 28.376C109.771 27.8 108.995 27 108.435 25.976C107.875 24.936 107.595 23.728 107.595 22.352ZM135.448 15.704V29H132.064V27.32C131.632 27.896 131.064 28.352 130.36 28.688C129.672 29.008 128.92 29.168 128.104 29.168C127.064 29.168 126.144 28.952 125.344 28.52C124.544 28.072 123.912 27.424 123.448 26.576C123 25.712 122.776 24.688 122.776 23.504V15.704H126.136V23.024C126.136 24.08 126.4 24.896 126.928 25.472C127.456 26.032 128.176 26.312 129.088 26.312C130.016 26.312 130.744 26.032 131.272 25.472C131.8 24.896 132.064 24.08 132.064 23.024V15.704H135.448ZM142.123 11.24V29H138.763V11.24H142.123ZM144.579 22.304C144.579 20.96 144.843 19.768 145.371 18.728C145.915 17.688 146.643 16.888 147.555 16.328C148.483 15.768 149.515 15.488 150.651 15.488C151.643 15.488 152.507 15.688 153.243 16.088C153.995 16.488 154.595 16.992 155.043 17.6V15.704H158.427V29H155.043V27.056C154.611 27.68 154.011 28.2 153.243 28.616C152.491 29.016 151.619 29.216 150.627 29.216C149.507 29.216 148.483 28.928 147.555 28.352C146.643 27.776 145.915 26.968 145.371 25.928C144.843 24.872 144.579 23.664 144.579 22.304ZM155.043 22.352C155.043 21.536 154.883 20.84 154.563 20.264C154.243 19.672 153.811 19.224 153.267 18.92C152.723 18.6 152.139 18.44 151.515 18.44C150.891 18.44 150.315 18.592 149.787 18.896C149.259 19.2 148.827 19.648 148.491 20.24C148.171 20.816 148.011 21.504 148.011 22.304C148.011 23.104 148.171 23.808 148.491 24.416C148.827 25.008 149.259 25.464 149.787 25.784C150.331 26.104 150.907 26.264 151.515 26.264C152.139 26.264 152.723 26.112 153.267 25.808C153.811 25.488 154.243 25.04 154.563 24.464C154.883 23.872 155.043 23.168 155.043 22.352ZM165.621 18.464V24.896C165.621 25.344 165.725 25.672 165.933 25.88C166.157 26.072 166.525 26.168 167.037 26.168H168.597V29H166.485C163.653 29 162.237 27.624 162.237 24.872V18.464H160.653V15.704H162.237V12.416H165.621V15.704H168.597V18.464H165.621ZM183.373 22.064C183.373 22.544 183.341 22.976 183.277 23.36H173.557C173.637 24.32 173.973 25.072 174.565 25.616C175.157 26.16 175.885 26.432 176.749 26.432C177.997 26.432 178.885 25.896 179.413 24.824H183.037C182.653 26.104 181.917 27.16 180.829 27.992C179.741 28.808 178.405 29.216 176.821 29.216C175.541 29.216 174.389 28.936 173.365 28.376C172.357 27.8 171.565 26.992 170.989 25.952C170.429 24.912 170.149 23.712 170.149 22.352C170.149 20.976 170.429 19.768 170.989 18.728C171.549 17.688 172.333 16.888 173.341 16.328C174.349 15.768 175.509 15.488 176.821 15.488C178.085 15.488 179.213 15.76 180.205 16.304C181.213 16.848 181.989 17.624 182.533 18.632C183.093 19.624 183.373 20.768 183.373 22.064ZM179.893 21.104C179.877 20.24 179.565 19.552 178.957 19.04C178.349 18.512 177.605 18.248 176.725 18.248C175.893 18.248 175.189 18.504 174.613 19.016C174.053 19.512 173.709 20.208 173.581 21.104H179.893Z" fill="white"/>
</svg>
