<svg width="261" height="42" viewBox="0 0 261 42" fill="none" xmlns="http://www.w3.org/2000/svg">
<rect width="250" height="42" rx="19" fill="#B81200" fill-opacity="0.85"/>
<path d="M92.8101 21.6C92.8101 19.952 93.1781 18.48 93.9141 17.184C94.6661 15.872 95.6821 14.856 96.9621 14.136C98.2581 13.4 99.7061 13.032 101.306 13.032C103.178 13.032 104.818 13.512 106.226 14.472C107.634 15.432 108.618 16.76 109.178 18.456H105.314C104.93 17.656 104.386 17.056 103.682 16.656C102.994 16.256 102.194 16.056 101.282 16.056C100.306 16.056 99.4341 16.288 98.6661 16.752C97.9141 17.2 97.3221 17.84 96.8901 18.672C96.4741 19.504 96.2661 20.48 96.2661 21.6C96.2661 22.704 96.4741 23.68 96.8901 24.528C97.3221 25.36 97.9141 26.008 98.6661 26.472C99.4341 26.92 100.306 27.144 101.282 27.144C102.194 27.144 102.994 26.944 103.682 26.544C104.386 26.128 104.93 25.52 105.314 24.72H109.178C108.618 26.432 107.634 27.768 106.226 28.728C104.834 29.672 103.194 30.144 101.306 30.144C99.7061 30.144 98.2581 29.784 96.9621 29.064C95.6821 28.328 94.6661 27.312 93.9141 26.016C93.1781 24.72 92.8101 23.248 92.8101 21.6ZM115.408 12.24V30H112.048V12.24H115.408ZM131.088 23.064C131.088 23.544 131.056 23.976 130.992 24.36H121.272C121.352 25.32 121.688 26.072 122.28 26.616C122.872 27.16 123.6 27.432 124.464 27.432C125.712 27.432 126.6 26.896 127.128 25.824H130.752C130.368 27.104 129.632 28.16 128.544 28.992C127.456 29.808 126.12 30.216 124.536 30.216C123.256 30.216 122.104 29.936 121.08 29.376C120.072 28.8 119.28 27.992 118.704 26.952C118.144 25.912 117.864 24.712 117.864 23.352C117.864 21.976 118.144 20.768 118.704 19.728C119.264 18.688 120.048 17.888 121.056 17.328C122.064 16.768 123.224 16.488 124.536 16.488C125.8 16.488 126.928 16.76 127.92 17.304C128.928 17.848 129.704 18.624 130.248 19.632C130.808 20.624 131.088 21.768 131.088 23.064ZM127.608 22.104C127.592 21.24 127.28 20.552 126.672 20.04C126.064 19.512 125.32 19.248 124.44 19.248C123.608 19.248 122.904 19.504 122.328 20.016C121.768 20.512 121.424 21.208 121.296 22.104H127.608ZM132.676 23.304C132.676 21.96 132.94 20.768 133.468 19.728C134.012 18.688 134.74 17.888 135.652 17.328C136.58 16.768 137.612 16.488 138.748 16.488C139.74 16.488 140.604 16.688 141.34 17.088C142.092 17.488 142.692 17.992 143.14 18.6V16.704H146.524V30H143.14V28.056C142.708 28.68 142.108 29.2 141.34 29.616C140.588 30.016 139.716 30.216 138.724 30.216C137.604 30.216 136.58 29.928 135.652 29.352C134.74 28.776 134.012 27.968 133.468 26.928C132.94 25.872 132.676 24.664 132.676 23.304ZM143.14 23.352C143.14 22.536 142.98 21.84 142.66 21.264C142.34 20.672 141.908 20.224 141.364 19.92C140.82 19.6 140.236 19.44 139.612 19.44C138.988 19.44 138.412 19.592 137.884 19.896C137.356 20.2 136.924 20.648 136.588 21.24C136.268 21.816 136.108 22.504 136.108 23.304C136.108 24.104 136.268 24.808 136.588 25.416C136.924 26.008 137.356 26.464 137.884 26.784C138.428 27.104 139.004 27.264 139.612 27.264C140.236 27.264 140.82 27.112 141.364 26.808C141.908 26.488 142.34 26.04 142.66 25.464C142.98 24.872 143.14 24.168 143.14 23.352ZM153.166 18.768C153.598 18.064 154.158 17.512 154.846 17.112C155.55 16.712 156.35 16.512 157.246 16.512V20.04H156.358C155.302 20.04 154.502 20.288 153.958 20.784C153.43 21.28 153.166 22.144 153.166 23.376V30H149.806V16.704H153.166V18.768Z" fill="white"/>
</svg>
