<svg width="27" height="27" viewBox="0 0 27 27" fill="none" xmlns="http://www.w3.org/2000/svg">
<path d="M21.375 3.375H5.625C5.02826 3.375 4.45597 3.61205 4.03401 4.03401C3.61205 4.45597 3.375 5.02826 3.375 5.625V21.375C3.375 21.9717 3.61205 22.544 4.03401 22.966C4.45597 23.3879 5.02826 23.625 5.625 23.625H21.375C21.9717 23.625 22.544 23.3879 22.966 22.966C23.3879 22.544 23.625 21.9717 23.625 21.375V5.625C23.625 5.02826 23.3879 4.45597 22.966 4.03401C22.544 3.61205 21.9717 3.375 21.375 3.375ZM17.55 19.125L13.5 15.075L9.45 19.125L7.875 17.55L11.925 13.5L7.875 9.45L9.45 7.875L13.5 11.925L17.55 7.875L19.125 9.45L15.075 13.5L19.125 17.55L17.55 19.125Z" fill="#FF0000"/>
</svg>
