<svg width="246" height="31" viewBox="0 0 246 31" fill="none" xmlns="http://www.w3.org/2000/svg">
<rect y="4" width="27" height="27" rx="6" fill="#1A1F37"/>
<path d="M5.625 26.5V14.6875L13.5 8.7385L21.375 14.6875V26.5H15.534V19.318H11.466V26.5H5.625Z" fill="#0075FF"/>
<path d="M50.248 9.32C52.024 9.32 53.576 9.664 54.904 10.352C56.248 11.024 57.28 12 58 13.28C58.736 14.544 59.104 16.024 59.104 17.72C59.104 19.416 58.736 20.888 58 22.136C57.28 23.384 56.248 24.344 54.904 25.016C53.576 25.672 52.024 26 50.248 26H44.8V9.32H50.248ZM50.248 23.768C52.2 23.768 53.696 23.24 54.736 22.184C55.776 21.128 56.296 19.64 56.296 17.72C56.296 15.784 55.776 14.272 54.736 13.184C53.696 12.096 52.2 11.552 50.248 11.552H47.536V23.768H50.248ZM60.9036 19.328C60.9036 18 61.1756 16.824 61.7196 15.8C62.2796 14.776 63.0316 13.984 63.9756 13.424C64.9356 12.848 65.9916 12.56 67.1436 12.56C68.1836 12.56 69.0876 12.768 69.8556 13.184C70.6396 13.584 71.2636 14.088 71.7276 14.696V12.776H74.4876V26H71.7276V24.032C71.2636 24.656 70.6316 25.176 69.8316 25.592C69.0316 26.008 68.1196 26.216 67.0956 26.216C65.9596 26.216 64.9196 25.928 63.9756 25.352C63.0316 24.76 62.2796 23.944 61.7196 22.904C61.1756 21.848 60.9036 20.656 60.9036 19.328ZM71.7276 19.376C71.7276 18.464 71.5356 17.672 71.1516 17C70.7836 16.328 70.2956 15.816 69.6876 15.464C69.0796 15.112 68.4236 14.936 67.7196 14.936C67.0156 14.936 66.3596 15.112 65.7516 15.464C65.1436 15.8 64.6476 16.304 64.2636 16.976C63.8956 17.632 63.7116 18.416 63.7116 19.328C63.7116 20.24 63.8956 21.04 64.2636 21.728C64.6476 22.416 65.1436 22.944 65.7516 23.312C66.3756 23.664 67.0316 23.84 67.7196 23.84C68.4236 23.84 69.0796 23.664 69.6876 23.312C70.2956 22.96 70.7836 22.448 71.1516 21.776C71.5356 21.088 71.7276 20.288 71.7276 19.376ZM82.8813 26.216C81.8413 26.216 80.9053 26.032 80.0733 25.664C79.2573 25.28 78.6093 24.768 78.1293 24.128C77.6493 23.472 77.3933 22.744 77.3613 21.944H80.1933C80.2413 22.504 80.5053 22.976 80.9853 23.36C81.4813 23.728 82.0973 23.912 82.8333 23.912C83.6013 23.912 84.1933 23.768 84.6093 23.48C85.0413 23.176 85.2573 22.792 85.2573 22.328C85.2573 21.832 85.0173 21.464 84.5373 21.224C84.0733 20.984 83.3293 20.72 82.3053 20.432C81.3133 20.16 80.5053 19.896 79.8813 19.64C79.2573 19.384 78.7133 18.992 78.2493 18.464C77.8013 17.936 77.5773 17.24 77.5773 16.376C77.5773 15.672 77.7853 15.032 78.2013 14.456C78.6173 13.864 79.2093 13.4 79.9773 13.064C80.7613 12.728 81.6573 12.56 82.6653 12.56C84.1693 12.56 85.3773 12.944 86.2893 13.712C87.2173 14.464 87.7133 15.496 87.7773 16.808H85.0413C84.9933 16.216 84.7533 15.744 84.3213 15.392C83.8893 15.04 83.3053 14.864 82.5693 14.864C81.8493 14.864 81.2973 15 80.9133 15.272C80.5293 15.544 80.3373 15.904 80.3373 16.352C80.3373 16.704 80.4653 17 80.7213 17.24C80.9773 17.48 81.2893 17.672 81.6573 17.816C82.0253 17.944 82.5693 18.112 83.2893 18.32C84.2493 18.576 85.0333 18.84 85.6413 19.112C86.2653 19.368 86.8013 19.752 87.2493 20.264C87.6973 20.776 87.9293 21.456 87.9453 22.304C87.9453 23.056 87.7373 23.728 87.3213 24.32C86.9053 24.912 86.3133 25.376 85.5453 25.712C84.7933 26.048 83.9053 26.216 82.8813 26.216ZM97.7416 12.56C98.7496 12.56 99.6456 12.776 100.43 13.208C101.23 13.64 101.854 14.28 102.302 15.128C102.766 15.976 102.998 17 102.998 18.2V26H100.286V18.608C100.286 17.424 99.9896 16.52 99.3976 15.896C98.8056 15.256 97.9976 14.936 96.9736 14.936C95.9496 14.936 95.1336 15.256 94.5256 15.896C93.9336 16.52 93.6376 17.424 93.6376 18.608V26H90.9016V8.24H93.6376V14.312C94.1016 13.752 94.6856 13.32 95.3896 13.016C96.1096 12.712 96.8936 12.56 97.7416 12.56ZM109.224 14.744C109.688 14.104 110.32 13.584 111.12 13.184C111.936 12.768 112.84 12.56 113.832 12.56C115 12.56 116.056 12.84 117 13.4C117.944 13.96 118.688 14.76 119.232 15.8C119.776 16.824 120.048 18 120.048 19.328C120.048 20.656 119.776 21.848 119.232 22.904C118.688 23.944 117.936 24.76 116.976 25.352C116.032 25.928 114.984 26.216 113.832 26.216C112.808 26.216 111.896 26.016 111.096 25.616C110.312 25.216 109.688 24.704 109.224 24.08V26H106.488V8.24H109.224V14.744ZM117.264 19.328C117.264 18.416 117.072 17.632 116.688 16.976C116.32 16.304 115.824 15.8 115.2 15.464C114.592 15.112 113.936 14.936 113.232 14.936C112.544 14.936 111.888 15.112 111.264 15.464C110.656 15.816 110.16 16.328 109.776 17C109.408 17.672 109.224 18.464 109.224 19.376C109.224 20.288 109.408 21.088 109.776 21.776C110.16 22.448 110.656 22.96 111.264 23.312C111.888 23.664 112.544 23.84 113.232 23.84C113.936 23.84 114.592 23.664 115.2 23.312C115.824 22.944 116.32 22.416 116.688 21.728C117.072 21.04 117.264 20.24 117.264 19.328ZM128.489 26.216C127.241 26.216 126.113 25.936 125.105 25.376C124.097 24.8 123.305 24 122.729 22.976C122.153 21.936 121.865 20.736 121.865 19.376C121.865 18.032 122.161 16.84 122.753 15.8C123.345 14.76 124.153 13.96 125.177 13.4C126.201 12.84 127.345 12.56 128.609 12.56C129.873 12.56 131.017 12.84 132.041 13.4C133.065 13.96 133.873 14.76 134.465 15.8C135.057 16.84 135.353 18.032 135.353 19.376C135.353 20.72 135.049 21.912 134.441 22.952C133.833 23.992 133.001 24.8 131.945 25.376C130.905 25.936 129.753 26.216 128.489 26.216ZM128.489 23.84C129.193 23.84 129.849 23.672 130.457 23.336C131.081 23 131.585 22.496 131.969 21.824C132.353 21.152 132.545 20.336 132.545 19.376C132.545 18.416 132.361 17.608 131.993 16.952C131.625 16.28 131.137 15.776 130.529 15.44C129.921 15.104 129.265 14.936 128.561 14.936C127.857 14.936 127.201 15.104 126.593 15.44C126.001 15.776 125.529 16.28 125.177 16.952C124.825 17.608 124.649 18.416 124.649 19.376C124.649 20.8 125.009 21.904 125.729 22.688C126.465 23.456 127.385 23.84 128.489 23.84ZM137.146 19.328C137.146 18 137.418 16.824 137.962 15.8C138.522 14.776 139.274 13.984 140.218 13.424C141.178 12.848 142.234 12.56 143.386 12.56C144.426 12.56 145.33 12.768 146.098 13.184C146.882 13.584 147.506 14.088 147.97 14.696V12.776H150.73V26H147.97V24.032C147.506 24.656 146.874 25.176 146.074 25.592C145.274 26.008 144.362 26.216 143.338 26.216C142.202 26.216 141.162 25.928 140.218 25.352C139.274 24.76 138.522 23.944 137.962 22.904C137.418 21.848 137.146 20.656 137.146 19.328ZM147.97 19.376C147.97 18.464 147.778 17.672 147.394 17C147.026 16.328 146.538 15.816 145.93 15.464C145.322 15.112 144.666 14.936 143.962 14.936C143.258 14.936 142.602 15.112 141.994 15.464C141.386 15.8 140.89 16.304 140.506 16.976C140.138 17.632 139.954 18.416 139.954 19.328C139.954 20.24 140.138 21.04 140.506 21.728C140.89 22.416 141.386 22.944 141.994 23.312C142.618 23.664 143.274 23.84 143.962 23.84C144.666 23.84 145.322 23.664 145.93 23.312C146.538 22.96 147.026 22.448 147.394 21.776C147.778 21.088 147.97 20.288 147.97 19.376ZM157.059 14.696C157.459 14.024 157.987 13.504 158.643 13.136C159.315 12.752 160.107 12.56 161.019 12.56V15.392H160.323C159.251 15.392 158.435 15.664 157.875 16.208C157.331 16.752 157.059 17.696 157.059 19.04V26H154.323V12.776H157.059V14.696ZM162.622 19.328C162.622 18 162.894 16.824 163.438 15.8C163.998 14.776 164.75 13.984 165.694 13.424C166.654 12.848 167.718 12.56 168.886 12.56C169.75 12.56 170.598 12.752 171.43 13.136C172.278 13.504 172.95 14 173.446 14.624V8.24H176.206V26H173.446V24.008C172.998 24.648 172.374 25.176 171.574 25.592C170.79 26.008 169.886 26.216 168.862 26.216C167.71 26.216 166.654 25.928 165.694 25.352C164.75 24.76 163.998 23.944 163.438 22.904C162.894 21.848 162.622 20.656 162.622 19.328ZM173.446 19.376C173.446 18.464 173.254 17.672 172.87 17C172.502 16.328 172.014 15.816 171.406 15.464C170.798 15.112 170.142 14.936 169.438 14.936C168.734 14.936 168.078 15.112 167.47 15.464C166.862 15.8 166.366 16.304 165.982 16.976C165.614 17.632 165.43 18.416 165.43 19.328C165.43 20.24 165.614 21.04 165.982 21.728C166.366 22.416 166.862 22.944 167.47 23.312C168.094 23.664 168.75 23.84 169.438 23.84C170.142 23.84 170.798 23.664 171.406 23.312C172.014 22.96 172.502 22.448 172.87 21.776C173.254 21.088 173.446 20.288 173.446 19.376Z" fill="white"/>
</svg>
