<svg width="271" height="42" viewBox="0 0 271 42" fill="none" xmlns="http://www.w3.org/2000/svg">
<rect width="250" height="42" rx="19" fill="#00B894" fill-opacity="0.85"/>
<path d="M75.44 29.318C74.272 29.318 73.216 29.118 72.272 28.718C71.344 28.318 70.608 27.742 70.064 26.99C69.52 26.238 69.24 25.35 69.224 24.326H72.824C72.872 25.014 73.112 25.558 73.544 25.958C73.992 26.358 74.6 26.558 75.368 26.558C76.152 26.558 76.768 26.374 77.216 26.006C77.664 25.622 77.888 25.126 77.888 24.518C77.888 24.022 77.736 23.614 77.432 23.294C77.128 22.974 76.744 22.726 76.28 22.55C75.832 22.358 75.208 22.15 74.408 21.926C73.32 21.606 72.432 21.294 71.744 20.99C71.072 20.67 70.488 20.198 69.992 19.574C69.512 18.934 69.272 18.086 69.272 17.03C69.272 16.038 69.52 15.174 70.016 14.438C70.512 13.702 71.208 13.142 72.104 12.758C73 12.358 74.024 12.158 75.176 12.158C76.904 12.158 78.304 12.582 79.376 13.43C80.464 14.262 81.064 15.43 81.176 16.934H77.48C77.448 16.358 77.2 15.886 76.736 15.518C76.288 15.134 75.688 14.942 74.936 14.942C74.28 14.942 73.752 15.11 73.352 15.446C72.968 15.782 72.776 16.27 72.776 16.91C72.776 17.358 72.92 17.734 73.208 18.038C73.512 18.326 73.88 18.566 74.312 18.758C74.76 18.934 75.384 19.142 76.184 19.382C77.272 19.702 78.16 20.022 78.848 20.342C79.536 20.662 80.128 21.142 80.624 21.782C81.12 22.422 81.368 23.262 81.368 24.302C81.368 25.198 81.136 26.03 80.672 26.798C80.208 27.566 79.528 28.182 78.632 28.646C77.736 29.094 76.672 29.318 75.44 29.318ZM83.417 22.454C83.417 21.11 83.681 19.918 84.209 18.878C84.753 17.838 85.481 17.038 86.393 16.478C87.321 15.918 88.353 15.638 89.489 15.638C90.481 15.638 91.345 15.838 92.081 16.238C92.833 16.638 93.433 17.142 93.881 17.75V15.854H97.265V29.15H93.881V27.206C93.449 27.83 92.849 28.35 92.081 28.766C91.329 29.166 90.457 29.366 89.465 29.366C88.345 29.366 87.321 29.078 86.393 28.502C85.481 27.926 84.753 27.118 84.209 26.078C83.681 25.022 83.417 23.814 83.417 22.454ZM93.881 22.502C93.881 21.686 93.721 20.99 93.401 20.414C93.081 19.822 92.649 19.374 92.105 19.07C91.561 18.75 90.977 18.59 90.353 18.59C89.729 18.59 89.153 18.742 88.625 19.046C88.097 19.35 87.665 19.798 87.329 20.39C87.009 20.966 86.849 21.654 86.849 22.454C86.849 23.254 87.009 23.958 87.329 24.566C87.665 25.158 88.097 25.614 88.625 25.934C89.169 26.254 89.745 26.414 90.353 26.414C90.977 26.414 91.561 26.262 92.105 25.958C92.649 25.638 93.081 25.19 93.401 24.614C93.721 24.022 93.881 23.318 93.881 22.502ZM106.091 26.054L109.451 15.854H113.027L108.107 29.15H104.027L99.1306 15.854H102.731L106.091 26.054ZM127.274 22.214C127.274 22.694 127.242 23.126 127.178 23.51H117.458C117.538 24.47 117.874 25.222 118.466 25.766C119.058 26.31 119.786 26.582 120.65 26.582C121.898 26.582 122.786 26.046 123.314 24.974H126.938C126.554 26.254 125.818 27.31 124.73 28.142C123.642 28.958 122.306 29.366 120.722 29.366C119.442 29.366 118.29 29.086 117.266 28.526C116.258 27.95 115.466 27.142 114.89 26.102C114.33 25.062 114.05 23.862 114.05 22.502C114.05 21.126 114.33 19.918 114.89 18.878C115.45 17.838 116.234 17.038 117.242 16.478C118.25 15.918 119.41 15.638 120.722 15.638C121.986 15.638 123.114 15.91 124.106 16.454C125.114 16.998 125.89 17.774 126.434 18.782C126.994 19.774 127.274 20.918 127.274 22.214ZM123.794 21.254C123.778 20.39 123.466 19.702 122.858 19.19C122.25 18.662 121.506 18.398 120.626 18.398C119.794 18.398 119.09 18.654 118.514 19.166C117.954 19.662 117.61 20.358 117.482 21.254H123.794ZM138.805 26.486H144.325V29.15H135.445V12.398H138.805V26.486ZM152.365 29.366C151.085 29.366 149.933 29.086 148.909 28.526C147.885 27.95 147.077 27.142 146.485 26.102C145.909 25.062 145.621 23.862 145.621 22.502C145.621 21.142 145.917 19.942 146.509 18.902C147.117 17.862 147.941 17.062 148.981 16.502C150.021 15.926 151.181 15.638 152.461 15.638C153.741 15.638 154.901 15.926 155.941 16.502C156.981 17.062 157.797 17.862 158.389 18.902C158.997 19.942 159.301 21.142 159.301 22.502C159.301 23.862 158.989 25.062 158.365 26.102C157.757 27.142 156.925 27.95 155.869 28.526C154.829 29.086 153.661 29.366 152.365 29.366ZM152.365 26.438C152.973 26.438 153.541 26.294 154.069 26.006C154.613 25.702 155.045 25.254 155.365 24.662C155.685 24.07 155.845 23.35 155.845 22.502C155.845 21.238 155.509 20.27 154.837 19.598C154.181 18.91 153.373 18.566 152.413 18.566C151.453 18.566 150.645 18.91 149.989 19.598C149.349 20.27 149.029 21.238 149.029 22.502C149.029 23.766 149.341 24.742 149.965 25.43C150.605 26.102 151.405 26.438 152.365 26.438ZM166.973 15.638C167.965 15.638 168.837 15.838 169.589 16.238C170.341 16.622 170.933 17.126 171.365 17.75V15.854H174.749V29.246C174.749 30.478 174.501 31.574 174.005 32.534C173.509 33.51 172.765 34.278 171.773 34.838C170.781 35.414 169.581 35.702 168.173 35.702C166.285 35.702 164.733 35.262 163.517 34.382C162.317 33.502 161.637 32.302 161.477 30.782H164.813C164.989 31.39 165.365 31.87 165.941 32.222C166.533 32.59 167.245 32.774 168.077 32.774C169.053 32.774 169.845 32.478 170.453 31.886C171.061 31.31 171.365 30.43 171.365 29.246V27.182C170.933 27.806 170.333 28.326 169.565 28.742C168.813 29.158 167.949 29.366 166.973 29.366C165.853 29.366 164.829 29.078 163.901 28.502C162.973 27.926 162.237 27.118 161.693 26.078C161.165 25.022 160.901 23.814 160.901 22.454C160.901 21.11 161.165 19.918 161.693 18.878C162.237 17.838 162.965 17.038 163.877 16.478C164.805 15.918 165.837 15.638 166.973 15.638ZM171.365 22.502C171.365 21.686 171.205 20.99 170.885 20.414C170.565 19.822 170.133 19.374 169.589 19.07C169.045 18.75 168.461 18.59 167.837 18.59C167.213 18.59 166.637 18.742 166.109 19.046C165.581 19.35 165.149 19.798 164.813 20.39C164.493 20.966 164.333 21.654 164.333 22.454C164.333 23.254 164.493 23.958 164.813 24.566C165.149 25.158 165.581 25.614 166.109 25.934C166.653 26.254 167.229 26.414 167.837 26.414C168.461 26.414 169.045 26.262 169.589 25.958C170.133 25.638 170.565 25.19 170.885 24.614C171.205 24.022 171.365 23.318 171.365 22.502Z" fill="white"/>
</svg>
