<svg width="250" height="42" viewBox="0 0 250 42" fill="none" xmlns="http://www.w3.org/2000/svg">
<rect width="250" height="42" rx="19" fill="#00B894" fill-opacity="0.85"/>
<path d="M70.296 30.5798C69.176 30.5798 68.168 30.3878 67.272 30.0038C66.376 29.6038 65.672 29.0438 65.16 28.3238C64.648 27.6038 64.392 26.7638 64.392 25.8038H67.32C67.384 26.5238 67.664 27.1158 68.16 27.5798C68.672 28.0438 69.384 28.2758 70.296 28.2758C71.24 28.2758 71.976 28.0518 72.504 27.6038C73.032 27.1398 73.296 26.5478 73.296 25.8278C73.296 25.2678 73.128 24.8118 72.792 24.4598C72.472 24.1078 72.064 23.8358 71.568 23.6438C71.088 23.4518 70.416 23.2438 69.552 23.0198C68.464 22.7318 67.576 22.4438 66.888 22.1558C66.216 21.8518 65.64 21.3878 65.16 20.7638C64.68 20.1398 64.44 19.3078 64.44 18.2678C64.44 17.3078 64.68 16.4678 65.16 15.7478C65.64 15.0278 66.312 14.4758 67.176 14.0918C68.04 13.7078 69.04 13.5158 70.176 13.5158C71.792 13.5158 73.112 13.9238 74.136 14.7398C75.176 15.5398 75.752 16.6438 75.864 18.0518H72.84C72.792 17.4438 72.504 16.9238 71.976 16.4918C71.448 16.0598 70.752 15.8438 69.888 15.8438C69.104 15.8438 68.464 16.0438 67.968 16.4438C67.472 16.8438 67.224 17.4198 67.224 18.1718C67.224 18.6838 67.376 19.1078 67.68 19.4438C68 19.7638 68.4 20.0198 68.88 20.2118C69.36 20.4038 70.016 20.6118 70.848 20.8358C71.952 21.1398 72.848 21.4438 73.536 21.7478C74.24 22.0518 74.832 22.5238 75.312 23.1638C75.808 23.7878 76.056 24.6278 76.056 25.6838C76.056 26.5318 75.824 27.3318 75.36 28.0838C74.912 28.8358 74.248 29.4438 73.368 29.9078C72.504 30.3558 71.48 30.5798 70.296 30.5798ZM78.3724 23.7398C78.3724 22.4118 78.6444 21.2358 79.1884 20.2118C79.7484 19.1878 80.5004 18.3958 81.4444 17.8358C82.4044 17.2598 83.4604 16.9718 84.6124 16.9718C85.6524 16.9718 86.5564 17.1798 87.3244 17.5958C88.1084 17.9958 88.7324 18.4998 89.1964 19.1078V17.1878H91.9564V30.4118H89.1964V28.4438C88.7324 29.0678 88.1004 29.5878 87.3004 30.0038C86.5004 30.4198 85.5884 30.6278 84.5644 30.6278C83.4284 30.6278 82.3884 30.3398 81.4444 29.7638C80.5004 29.1718 79.7484 28.3558 79.1884 27.3158C78.6444 26.2598 78.3724 25.0678 78.3724 23.7398ZM89.1964 23.7878C89.1964 22.8758 89.0044 22.0838 88.6204 21.4118C88.2524 20.7398 87.7644 20.2278 87.1564 19.8758C86.5484 19.5238 85.8924 19.3478 85.1884 19.3478C84.4844 19.3478 83.8284 19.5238 83.2204 19.8758C82.6124 20.2118 82.1164 20.7158 81.7324 21.3878C81.3644 22.0438 81.1804 22.8278 81.1804 23.7398C81.1804 24.6518 81.3644 25.4518 81.7324 26.1398C82.1164 26.8278 82.6124 27.3558 83.2204 27.7238C83.8444 28.0758 84.5004 28.2518 85.1884 28.2518C85.8924 28.2518 86.5484 28.0758 87.1564 27.7238C87.7644 27.3718 88.2524 26.8598 88.6204 26.1878C89.0044 25.4998 89.1964 24.6998 89.1964 23.7878ZM100.662 27.9638L104.406 17.1878H107.31L102.27 30.4118H99.006L93.99 17.1878H96.918L100.662 27.9638ZM121.498 23.4758C121.498 23.9718 121.466 24.4198 121.402 24.8198H111.298C111.378 25.8758 111.77 26.7238 112.474 27.3638C113.178 28.0038 114.042 28.3238 115.066 28.3238C116.538 28.3238 117.578 27.7078 118.186 26.4758H121.138C120.738 27.6918 120.01 28.6918 118.954 29.4758C117.914 30.2438 116.618 30.6278 115.066 30.6278C113.802 30.6278 112.666 30.3478 111.658 29.7878C110.666 29.2118 109.882 28.4118 109.306 27.3878C108.746 26.3478 108.466 25.1478 108.466 23.7878C108.466 22.4278 108.738 21.2358 109.282 20.2118C109.842 19.1718 110.618 18.3718 111.61 17.8118C112.618 17.2518 113.77 16.9718 115.066 16.9718C116.314 16.9718 117.426 17.2438 118.402 17.7878C119.378 18.3318 120.138 19.0998 120.682 20.0918C121.226 21.0678 121.498 22.1958 121.498 23.4758ZM118.642 22.6118C118.626 21.6038 118.266 20.7958 117.562 20.1878C116.858 19.5798 115.986 19.2758 114.946 19.2758C114.002 19.2758 113.194 19.5798 112.522 20.1878C111.85 20.7798 111.45 21.5878 111.322 22.6118H118.642ZM135.873 13.7318C137.649 13.7318 139.201 14.0758 140.529 14.7638C141.873 15.4358 142.905 16.4118 143.625 17.6918C144.361 18.9558 144.729 20.4358 144.729 22.1318C144.729 23.8278 144.361 25.2998 143.625 26.5478C142.905 27.7958 141.873 28.7558 140.529 29.4278C139.201 30.0838 137.649 30.4118 135.873 30.4118H130.425V13.7318H135.873ZM135.873 28.1798C137.825 28.1798 139.321 27.6518 140.361 26.5958C141.401 25.5398 141.921 24.0518 141.921 22.1318C141.921 20.1958 141.401 18.6838 140.361 17.5958C139.321 16.5078 137.825 15.9638 135.873 15.9638H133.161V28.1798H135.873ZM146.529 23.7398C146.529 22.4118 146.801 21.2358 147.345 20.2118C147.905 19.1878 148.657 18.3958 149.601 17.8358C150.561 17.2598 151.617 16.9718 152.769 16.9718C153.809 16.9718 154.713 17.1798 155.481 17.5958C156.265 17.9958 156.889 18.4998 157.353 19.1078V17.1878H160.113V30.4118H157.353V28.4438C156.889 29.0678 156.257 29.5878 155.457 30.0038C154.657 30.4198 153.745 30.6278 152.721 30.6278C151.585 30.6278 150.545 30.3398 149.601 29.7638C148.657 29.1718 147.905 28.3558 147.345 27.3158C146.801 26.2598 146.529 25.0678 146.529 23.7398ZM157.353 23.7878C157.353 22.8758 157.161 22.0838 156.777 21.4118C156.409 20.7398 155.921 20.2278 155.313 19.8758C154.705 19.5238 154.049 19.3478 153.345 19.3478C152.641 19.3478 151.985 19.5238 151.377 19.8758C150.769 20.2118 150.273 20.7158 149.889 21.3878C149.521 22.0438 149.337 22.8278 149.337 23.7398C149.337 24.6518 149.521 25.4518 149.889 26.1398C150.273 26.8278 150.769 27.3558 151.377 27.7238C152.001 28.0758 152.657 28.2518 153.345 28.2518C154.049 28.2518 154.705 28.0758 155.313 27.7238C155.921 27.3718 156.409 26.8598 156.777 26.1878C157.161 25.4998 157.353 24.6998 157.353 23.7878ZM166.898 19.4198V26.7398C166.898 27.2358 167.01 27.5958 167.234 27.8198C167.474 28.0278 167.874 28.1318 168.434 28.1318H170.114V30.4118H167.954C166.722 30.4118 165.778 30.1238 165.122 29.5478C164.466 28.9718 164.138 28.0358 164.138 26.7398V19.4198H162.578V17.1878H164.138V13.8998H166.898V17.1878H170.114V19.4198H166.898ZM171.724 23.7398C171.724 22.4118 171.996 21.2358 172.54 20.2118C173.1 19.1878 173.852 18.3958 174.796 17.8358C175.756 17.2598 176.812 16.9718 177.964 16.9718C179.004 16.9718 179.908 17.1798 180.676 17.5958C181.46 17.9958 182.084 18.4998 182.548 19.1078V17.1878H185.308V30.4118H182.548V28.4438C182.084 29.0678 181.452 29.5878 180.652 30.0038C179.852 30.4198 178.94 30.6278 177.916 30.6278C176.78 30.6278 175.74 30.3398 174.796 29.7638C173.852 29.1718 173.1 28.3558 172.54 27.3158C171.996 26.2598 171.724 25.0678 171.724 23.7398ZM182.548 23.7878C182.548 22.8758 182.356 22.0838 181.972 21.4118C181.604 20.7398 181.116 20.2278 180.508 19.8758C179.9 19.5238 179.244 19.3478 178.54 19.3478C177.836 19.3478 177.18 19.5238 176.572 19.8758C175.964 20.2118 175.468 20.7158 175.084 21.3878C174.716 22.0438 174.532 22.8278 174.532 23.7398C174.532 24.6518 174.716 25.4518 175.084 26.1398C175.468 26.8278 175.964 27.3558 176.572 27.7238C177.196 28.0758 177.852 28.2518 178.54 28.2518C179.244 28.2518 179.9 28.0758 180.508 27.7238C181.116 27.3718 181.604 26.8598 181.972 26.1878C182.356 25.4998 182.548 24.6998 182.548 23.7878Z" fill="white"/>
</svg>
