<svg width="301" height="47" viewBox="0 0 301 47" fill="none" xmlns="http://www.w3.org/2000/svg">
<rect width="301" height="47" rx="9" fill="#414760"/>
<rect x="13" y="10" width="27" height="27" rx="6" fill="#0075FF"/>
<path d="M18.625 32.5V20.6875L26.5 14.7385L34.375 20.6875V32.5H28.534V25.318H24.466V32.5H18.625Z" fill="white"/>
<path d="M63.248 15.32C65.024 15.32 66.576 15.664 67.904 16.352C69.248 17.024 70.28 18 71 19.28C71.736 20.544 72.104 22.024 72.104 23.72C72.104 25.416 71.736 26.888 71 28.136C70.28 29.384 69.248 30.344 67.904 31.016C66.576 31.672 65.024 32 63.248 32H57.8V15.32H63.248ZM63.248 29.768C65.2 29.768 66.696 29.24 67.736 28.184C68.776 27.128 69.296 25.64 69.296 23.72C69.296 21.784 68.776 20.272 67.736 19.184C66.696 18.096 65.2 17.552 63.248 17.552H60.536V29.768H63.248ZM73.9036 25.328C73.9036 24 74.1756 22.824 74.7196 21.8C75.2796 20.776 76.0316 19.984 76.9756 19.424C77.9356 18.848 78.9916 18.56 80.1436 18.56C81.1836 18.56 82.0876 18.768 82.8556 19.184C83.6396 19.584 84.2636 20.088 84.7276 20.696V18.776H87.4876V32H84.7276V30.032C84.2636 30.656 83.6316 31.176 82.8316 31.592C82.0316 32.008 81.1196 32.216 80.0956 32.216C78.9596 32.216 77.9196 31.928 76.9756 31.352C76.0316 30.76 75.2796 29.944 74.7196 28.904C74.1756 27.848 73.9036 26.656 73.9036 25.328ZM84.7276 25.376C84.7276 24.464 84.5356 23.672 84.1516 23C83.7836 22.328 83.2956 21.816 82.6876 21.464C82.0796 21.112 81.4236 20.936 80.7196 20.936C80.0156 20.936 79.3596 21.112 78.7516 21.464C78.1436 21.8 77.6476 22.304 77.2636 22.976C76.8956 23.632 76.7116 24.416 76.7116 25.328C76.7116 26.24 76.8956 27.04 77.2636 27.728C77.6476 28.416 78.1436 28.944 78.7516 29.312C79.3756 29.664 80.0316 29.84 80.7196 29.84C81.4236 29.84 82.0796 29.664 82.6876 29.312C83.2956 28.96 83.7836 28.448 84.1516 27.776C84.5356 27.088 84.7276 26.288 84.7276 25.376ZM95.8813 32.216C94.8413 32.216 93.9053 32.032 93.0733 31.664C92.2573 31.28 91.6093 30.768 91.1293 30.128C90.6493 29.472 90.3933 28.744 90.3613 27.944H93.1933C93.2413 28.504 93.5053 28.976 93.9853 29.36C94.4813 29.728 95.0973 29.912 95.8333 29.912C96.6013 29.912 97.1933 29.768 97.6093 29.48C98.0413 29.176 98.2573 28.792 98.2573 28.328C98.2573 27.832 98.0173 27.464 97.5373 27.224C97.0733 26.984 96.3293 26.72 95.3053 26.432C94.3133 26.16 93.5053 25.896 92.8813 25.64C92.2573 25.384 91.7133 24.992 91.2493 24.464C90.8013 23.936 90.5773 23.24 90.5773 22.376C90.5773 21.672 90.7853 21.032 91.2013 20.456C91.6173 19.864 92.2093 19.4 92.9773 19.064C93.7613 18.728 94.6573 18.56 95.6653 18.56C97.1693 18.56 98.3773 18.944 99.2893 19.712C100.217 20.464 100.713 21.496 100.777 22.808H98.0413C97.9933 22.216 97.7533 21.744 97.3213 21.392C96.8893 21.04 96.3053 20.864 95.5693 20.864C94.8493 20.864 94.2973 21 93.9133 21.272C93.5293 21.544 93.3373 21.904 93.3373 22.352C93.3373 22.704 93.4653 23 93.7213 23.24C93.9773 23.48 94.2893 23.672 94.6573 23.816C95.0253 23.944 95.5693 24.112 96.2893 24.32C97.2493 24.576 98.0333 24.84 98.6413 25.112C99.2653 25.368 99.8013 25.752 100.249 26.264C100.697 26.776 100.929 27.456 100.945 28.304C100.945 29.056 100.737 29.728 100.321 30.32C99.9053 30.912 99.3133 31.376 98.5453 31.712C97.7933 32.048 96.9053 32.216 95.8813 32.216ZM110.742 18.56C111.75 18.56 112.646 18.776 113.43 19.208C114.23 19.64 114.854 20.28 115.302 21.128C115.766 21.976 115.998 23 115.998 24.2V32H113.286V24.608C113.286 23.424 112.99 22.52 112.398 21.896C111.806 21.256 110.998 20.936 109.974 20.936C108.95 20.936 108.134 21.256 107.526 21.896C106.934 22.52 106.638 23.424 106.638 24.608V32H103.902V14.24H106.638V20.312C107.102 19.752 107.686 19.32 108.39 19.016C109.11 18.712 109.894 18.56 110.742 18.56ZM122.224 20.744C122.688 20.104 123.32 19.584 124.12 19.184C124.936 18.768 125.84 18.56 126.832 18.56C128 18.56 129.056 18.84 130 19.4C130.944 19.96 131.688 20.76 132.232 21.8C132.776 22.824 133.048 24 133.048 25.328C133.048 26.656 132.776 27.848 132.232 28.904C131.688 29.944 130.936 30.76 129.976 31.352C129.032 31.928 127.984 32.216 126.832 32.216C125.808 32.216 124.896 32.016 124.096 31.616C123.312 31.216 122.688 30.704 122.224 30.08V32H119.488V14.24H122.224V20.744ZM130.264 25.328C130.264 24.416 130.072 23.632 129.688 22.976C129.32 22.304 128.824 21.8 128.2 21.464C127.592 21.112 126.936 20.936 126.232 20.936C125.544 20.936 124.888 21.112 124.264 21.464C123.656 21.816 123.16 22.328 122.776 23C122.408 23.672 122.224 24.464 122.224 25.376C122.224 26.288 122.408 27.088 122.776 27.776C123.16 28.448 123.656 28.96 124.264 29.312C124.888 29.664 125.544 29.84 126.232 29.84C126.936 29.84 127.592 29.664 128.2 29.312C128.824 28.944 129.32 28.416 129.688 27.728C130.072 27.04 130.264 26.24 130.264 25.328ZM141.489 32.216C140.241 32.216 139.113 31.936 138.105 31.376C137.097 30.8 136.305 30 135.729 28.976C135.153 27.936 134.865 26.736 134.865 25.376C134.865 24.032 135.161 22.84 135.753 21.8C136.345 20.76 137.153 19.96 138.177 19.4C139.201 18.84 140.345 18.56 141.609 18.56C142.873 18.56 144.017 18.84 145.041 19.4C146.065 19.96 146.873 20.76 147.465 21.8C148.057 22.84 148.353 24.032 148.353 25.376C148.353 26.72 148.049 27.912 147.441 28.952C146.833 29.992 146.001 30.8 144.945 31.376C143.905 31.936 142.753 32.216 141.489 32.216ZM141.489 29.84C142.193 29.84 142.849 29.672 143.457 29.336C144.081 29 144.585 28.496 144.969 27.824C145.353 27.152 145.545 26.336 145.545 25.376C145.545 24.416 145.361 23.608 144.993 22.952C144.625 22.28 144.137 21.776 143.529 21.44C142.921 21.104 142.265 20.936 141.561 20.936C140.857 20.936 140.201 21.104 139.593 21.44C139.001 21.776 138.529 22.28 138.177 22.952C137.825 23.608 137.649 24.416 137.649 25.376C137.649 26.8 138.009 27.904 138.729 28.688C139.465 29.456 140.385 29.84 141.489 29.84ZM150.146 25.328C150.146 24 150.418 22.824 150.962 21.8C151.522 20.776 152.274 19.984 153.218 19.424C154.178 18.848 155.234 18.56 156.386 18.56C157.426 18.56 158.33 18.768 159.098 19.184C159.882 19.584 160.506 20.088 160.97 20.696V18.776H163.73V32H160.97V30.032C160.506 30.656 159.874 31.176 159.074 31.592C158.274 32.008 157.362 32.216 156.338 32.216C155.202 32.216 154.162 31.928 153.218 31.352C152.274 30.76 151.522 29.944 150.962 28.904C150.418 27.848 150.146 26.656 150.146 25.328ZM160.97 25.376C160.97 24.464 160.778 23.672 160.394 23C160.026 22.328 159.538 21.816 158.93 21.464C158.322 21.112 157.666 20.936 156.962 20.936C156.258 20.936 155.602 21.112 154.994 21.464C154.386 21.8 153.89 22.304 153.506 22.976C153.138 23.632 152.954 24.416 152.954 25.328C152.954 26.24 153.138 27.04 153.506 27.728C153.89 28.416 154.386 28.944 154.994 29.312C155.618 29.664 156.274 29.84 156.962 29.84C157.666 29.84 158.322 29.664 158.93 29.312C159.538 28.96 160.026 28.448 160.394 27.776C160.778 27.088 160.97 26.288 160.97 25.376ZM170.059 20.696C170.459 20.024 170.987 19.504 171.643 19.136C172.315 18.752 173.107 18.56 174.019 18.56V21.392H173.323C172.251 21.392 171.435 21.664 170.875 22.208C170.331 22.752 170.059 23.696 170.059 25.04V32H167.323V18.776H170.059V20.696ZM175.622 25.328C175.622 24 175.894 22.824 176.438 21.8C176.998 20.776 177.75 19.984 178.694 19.424C179.654 18.848 180.718 18.56 181.886 18.56C182.75 18.56 183.598 18.752 184.43 19.136C185.278 19.504 185.95 20 186.446 20.624V14.24H189.206V32H186.446V30.008C185.998 30.648 185.374 31.176 184.574 31.592C183.79 32.008 182.886 32.216 181.862 32.216C180.71 32.216 179.654 31.928 178.694 31.352C177.75 30.76 176.998 29.944 176.438 28.904C175.894 27.848 175.622 26.656 175.622 25.328ZM186.446 25.376C186.446 24.464 186.254 23.672 185.87 23C185.502 22.328 185.014 21.816 184.406 21.464C183.798 21.112 183.142 20.936 182.438 20.936C181.734 20.936 181.078 21.112 180.47 21.464C179.862 21.8 179.366 22.304 178.982 22.976C178.614 23.632 178.43 24.416 178.43 25.328C178.43 26.24 178.614 27.04 178.982 27.728C179.366 28.416 179.862 28.944 180.47 29.312C181.094 29.664 181.75 29.84 182.438 29.84C183.142 29.84 183.798 29.664 184.406 29.312C185.014 28.96 185.502 28.448 185.87 27.776C186.254 27.088 186.446 26.288 186.446 25.376Z" fill="white"/>
</svg>
