<svg width="50" height="40" viewBox="0 0 50 40" fill="none" xmlns="http://www.w3.org/2000/svg">
<rect width="50" height="40" rx="10" fill="#00B894" fill-opacity="0.85"/>
<path d="M36.5127 7.665L37.1764 8.32875C38.091 9.2445 37.9527 10.8679 36.8648 11.9546L23.1769 25.6425L18.7422 27.2647C18.1853 27.4695 17.643 27.204 17.5328 26.6741C17.4956 26.4819 17.5132 26.2831 17.5834 26.1004L19.2372 21.6274L32.8868 7.97662C33.9747 6.88987 35.598 6.74925 36.5127 7.665ZM22.5795 9.02625C22.7273 9.02625 22.8736 9.05535 23.01 9.11188C23.1465 9.16842 23.2706 9.25129 23.375 9.35575C23.4795 9.46022 23.5624 9.58424 23.6189 9.72073C23.6754 9.85722 23.7045 10.0035 23.7045 10.1512C23.7045 10.299 23.6754 10.4453 23.6189 10.5818C23.5624 10.7183 23.4795 10.8423 23.375 10.9467C23.2706 11.0512 23.1465 11.1341 23.01 11.1906C22.8736 11.2471 22.7273 11.2762 22.5795 11.2762H18.0795C17.4828 11.2762 16.9105 11.5133 16.4885 11.9353C16.0666 12.3572 15.8295 12.9295 15.8295 13.5262V27.0262C15.8295 27.623 16.0666 28.1953 16.4885 28.6172C16.9105 29.0392 17.4828 29.2762 18.0795 29.2762H31.5795C32.1763 29.2762 32.7486 29.0392 33.1705 28.6172C33.5925 28.1953 33.8295 27.623 33.8295 27.0262V22.5262C33.8295 22.2279 33.9481 21.9417 34.159 21.7308C34.37 21.5198 34.6562 21.4012 34.9545 21.4012C35.2529 21.4012 35.539 21.5198 35.75 21.7308C35.961 21.9417 36.0795 22.2279 36.0795 22.5262V27.0262C36.0795 28.2197 35.6054 29.3643 34.7615 30.2082C33.9176 31.0521 32.773 31.5262 31.5795 31.5262H18.0795C16.8861 31.5262 15.7415 31.0521 14.8975 30.2082C14.0536 29.3643 13.5795 28.2197 13.5795 27.0262V13.5262C13.5795 12.3328 14.0536 11.1882 14.8975 10.3443C15.7415 9.50035 16.8861 9.02625 18.0795 9.02625H22.5795Z" fill="black"/>
</svg>
