<svg width="225" height="37" viewBox="0 0 225 37" fill="none" xmlns="http://www.w3.org/2000/svg">
<rect x="0.5" y="0.5" width="224" height="36" rx="13.5" fill="#E4F5F2" fill-opacity="0.85" stroke="#827777"/>
<rect x="0.5" y="0.5" width="224" height="36" rx="13.5" fill="#E4F5F2" fill-opacity="0.85" stroke="#827777"/>
<path d="M28.625 26.375L22.8268 20.5768C23.8987 18.9476 24.328 16.9787 24.0316 15.0513C23.7352 13.1238 22.7342 11.3748 21.2224 10.143C19.7105 8.9112 17.7954 8.28416 15.8478 8.3833C13.9002 8.48243 12.0586 9.30069 10.6796 10.6796C9.30069 12.0586 8.48243 13.9002 8.3833 15.8478C8.28416 17.7954 8.9112 19.7105 10.143 21.2224C11.3748 22.7342 13.1238 23.7352 15.0513 24.0316C16.9787 24.328 18.9476 23.8987 20.5768 22.8268L26.375 28.625L28.625 26.375ZM10.625 16.25C10.625 13.1484 13.1484 10.625 16.25 10.625C19.3516 10.625 21.875 13.1484 21.875 16.25C21.875 19.3516 19.3516 21.875 16.25 21.875C13.1484 21.875 10.625 19.3516 10.625 16.25Z" fill="#5D5555"/>
</svg>
